<svg width="1051" height="640" viewBox="0 0 1051 640" fill="none" xmlns="http://www.w3.org/2000/svg">
<path d="M685.93 279.451C684.718 285.342 683.266 291.173 681.572 296.944C681.388 297.614 681.183 298.274 680.977 298.944H657.416C655.41 298.946 653.486 299.685 652.067 300.997C650.648 302.31 649.85 304.089 649.848 305.945V368.076C649.134 369.306 648.409 370.526 647.685 371.746C643.944 378.047 640.051 384.278 636.072 390.429C571.189 490.401 480.694 574.06 372.577 634.019L378.979 620.657C376.632 620.507 374.275 620.357 371.929 620.207C320.839 616.976 269.575 613.396 219.685 602.774C167.492 591.662 116.435 572.389 75.5305 540.434C34.6149 508.469 4.62066 462.821 0.457662 413.433C-0.930477 396.46 0.925355 379.393 5.94004 363.015C15.5305 331.49 36.486 303.125 66.7183 286.342C114.208 259.988 176.154 265.359 226.216 287.283C276.268 309.196 317.011 345.472 356.791 381.118C316.627 317.41 260.706 263.418 193.616 223.572C171.385 210.41 147.792 198.688 128.891 181.635C110.001 164.592 96.0636 140.699 99.4051 116.485C103.2 89.0202 127.518 68.1768 151.879 52.1041C161.61 45.6831 171.655 39.5921 182.014 33.9912C211.241 18.1486 242.857 6.19667 276.247 1.76595C321.476 -4.24503 370.328 4.87646 405.005 32.4009C444.071 63.416 460.095 113.434 458.571 161.282C482.64 128.917 519.76 104.143 561.681 103.092C605.202 102.012 646.572 127.446 668.37 162.312C690.158 197.168 694.071 239.895 685.93 279.451Z" fill="#57B894" fill-opacity="0.7"/>
<path d="M681 299C681 301.4 660.333 346 650 368V305.5C650 300.3 654.333 299 656.5 299H681Z" fill="#89CDB5" stroke="#89CDB5" stroke-width="0.3"/>
<path d="M410.576 413.868C436.067 411.792 459.614 409.366 484.315 402.901C508.258 396.634 531.297 386.143 548.342 369.013C566.674 350.588 576.57 326.66 583.552 302.841C587.445 289.561 590.644 276.095 593.662 262.624C596.937 248.009 599.847 233.329 602.391 218.584C607.457 189.234 611.073 159.711 613.24 130.016C613.502 126.411 613.742 122.805 613.96 119.198C614.095 116.973 610.353 116.98 610.218 119.198C608.438 148.469 605.236 177.627 600.611 206.67C596.048 235.205 590.209 263.616 582.8 291.639C576.524 315.379 568.398 339.49 552.302 359.252C537.208 377.785 515.407 389.895 491.868 397.136C467.915 404.504 442.659 407.446 417.628 409.633C414.558 409.902 413.648 410.157 410.576 410.408C408.196 410.601 408.174 414.064 410.576 413.868L410.576 413.868Z" fill="white"/>
<path d="M8.1003 365.568C40.2612 367.218 72.0951 372.407 102.929 381.025C133.775 389.625 163.418 401.56 191.243 416.582C218.129 431.109 243.088 448.492 265.613 468.377C287.473 487.686 306.957 509.174 323.706 532.449C340.532 555.782 354.476 580.787 365.277 606.994C366.594 610.202 367.863 613.426 369.083 616.666C369.872 618.756 373.487 617.857 372.691 615.746C362.586 588.985 349.265 563.358 332.977 539.347C316.693 515.333 297.582 493.063 275.994 472.944C254.06 452.514 229.649 434.494 203.246 419.243C147.808 387.301 84.969 367.977 19.8899 362.859C15.9642 362.554 12.0343 362.304 8.10034 362.107C5.69451 361.986 5.7019 365.447 8.10034 365.568L8.1003 365.568Z" fill="white"/>
<path d="M183.026 38.0479C203.589 44.0972 223.08 52.9073 240.875 64.1964C259.059 75.8105 275.643 89.4334 290.259 104.763C305.662 120.889 319.356 138.346 331.153 156.893C343.665 176.475 354.535 196.917 363.666 218.038C373.069 239.722 380.978 261.935 387.344 284.544C393.816 307.421 398.871 330.621 402.485 354.03C406.081 377.192 408.256 400.523 409.002 423.911C409.754 446.276 409.039 468.662 406.862 490.947C404.871 511.737 401.234 532.364 395.981 552.663C391.316 570.996 384.742 588.868 376.351 606.028C374.407 609.923 372.344 613.763 370.163 617.551C369.032 619.515 372.26 621.266 373.394 619.297C382.667 602.906 390.072 585.668 395.489 567.859C401.566 548.035 405.971 527.805 408.664 507.35C411.65 485.158 413.104 462.813 413.018 440.45C412.964 416.956 411.452 393.484 408.49 370.15C405.526 346.526 401.125 323.074 395.309 299.907C389.507 276.702 382.147 253.855 373.272 231.497C364.718 209.853 354.476 188.813 342.627 168.541C331.341 149.197 318.189 130.836 303.332 113.681C289.222 97.3475 273.113 82.5812 255.327 69.6779C238.177 57.273 219.226 47.1615 199.03 39.6404C194.095 37.8235 189.092 36.1803 184.02 34.7109C181.718 34.0409 180.733 37.3808 183.026 38.0479H183.026Z" fill="white"/>
<path d="M404.941 640C552.74 640 672.555 635.522 672.555 629.998C672.555 624.475 552.74 619.997 404.941 619.997C257.141 619.997 137.326 624.475 137.326 629.998C137.326 635.522 257.141 640 404.941 640Z" fill="#57B894" fill-opacity="0.7"/>
<path d="M641.381 316.737C641.248 317.276 641.162 317.825 641.122 318.377L594.674 343.163L583.384 337.151L571.348 351.726L595.5 367.649L648.491 328.98C650.652 329.72 653.006 329.833 655.239 329.306C657.472 328.778 659.478 327.634 660.991 326.026C662.503 324.418 663.451 322.422 663.708 320.304C663.965 318.186 663.518 316.045 662.427 314.167C661.337 312.289 659.654 310.763 657.603 309.792C655.552 308.82 653.229 308.449 650.945 308.728C648.66 309.007 646.521 309.922 644.813 311.353C643.104 312.784 641.907 314.661 641.381 316.737Z" fill="#FFB8B8"/>
<path d="M535.597 331.943L572.17 356.055L588.528 337.084L552.975 310.697C551.446 309.562 549.682 308.728 547.791 308.245C545.901 307.763 543.924 307.642 541.982 307.891C540.039 308.14 538.172 308.753 536.495 309.693C534.817 310.633 533.365 311.88 532.227 313.357C530.009 316.235 529.118 319.81 529.751 323.296C530.383 326.782 532.486 329.892 535.597 331.943Z" fill="white"/>
<path d="M460.101 607.056L472.925 610.163L491.988 565.892L473.063 561.304L460.101 607.056Z" fill="#FFB8B8"/>
<path d="M494.536 627.172L454.234 617.404L458.314 603.001L483.045 608.995C487.174 609.996 490.705 612.473 492.86 615.882C495.015 619.291 495.618 623.352 494.536 627.172Z" fill="#3F3D56"/>
<path d="M574.092 615.501L587.142 613.345L584.361 565.76L565.101 568.943L574.092 615.501Z" fill="#FFB8B8"/>
<path d="M614.474 620.396L573.461 627.172L570.63 612.515L595.797 608.356C597.878 608.013 600.012 608.051 602.077 608.47C604.141 608.889 606.097 609.68 607.831 610.798C609.565 611.916 611.045 613.339 612.184 614.986C613.324 616.632 614.102 618.471 614.474 620.396Z" fill="#3F3D56"/>
<path d="M548.396 265.552C551.612 266.276 554.228 269.307 555.799 272.818C557.248 276.506 558.229 280.337 558.723 284.234C559.957 291.492 561.143 299.349 558.59 306.071C555.597 313.95 547.623 318.077 540.707 316.137C533.79 314.198 528.289 306.919 526.409 298.54C524.698 290.074 525.801 281.327 529.571 273.452C531.536 269.314 534.245 265.497 537.844 263.63C539.609 262.643 541.713 262.31 543.733 262.699C545.753 263.089 547.538 264.171 548.73 265.728" fill="#3F3D56"/>
<path d="M566.591 396.96L591.435 602.788L570.916 609.995L533.071 471.973L480.383 598.171L457.923 599.326C457.923 599.326 488.739 402.961 511.577 398.499L566.591 396.96Z" fill="#3F3D56"/>
<path d="M545.723 291.819C560.39 291.819 572.28 280.821 572.28 267.254C572.28 253.687 560.39 242.689 545.723 242.689C531.056 242.689 519.166 253.687 519.166 267.254C519.166 280.821 531.056 291.819 545.723 291.819Z" fill="#FFB8B8"/>
<path d="M557.121 302.125L528.422 298.662C528.422 298.662 509.705 319.438 510.953 355.217C512.201 390.997 507.834 401.961 507.834 401.961L567.672 402.961C559.022 391.96 595.202 328.772 557.121 302.125Z" fill="white"/>
<path d="M572.538 407.962C571.939 407.966 571.342 408.014 570.752 408.105L534.037 371.953L537.781 360.411L519.688 352.909L508.457 378.301L561.28 417.166C560.996 419.282 561.415 421.427 562.481 423.317C563.547 425.206 565.21 426.751 567.249 427.745C569.287 428.74 571.605 429.136 573.893 428.883C576.181 428.629 578.331 427.737 580.058 426.325C581.785 424.913 583.006 423.049 583.559 420.98C584.112 418.91 583.971 416.734 583.155 414.741C582.338 412.747 580.885 411.031 578.989 409.82C577.092 408.609 574.842 407.961 572.538 407.962Z" fill="#FFB8B8"/>
<path d="M532.325 316.19L515.32 354.64L539.028 365.027L558.662 326.976C559.507 325.339 559.981 323.56 560.056 321.747C560.131 319.934 559.806 318.127 559.099 316.435C558.393 314.742 557.32 313.202 555.947 311.906C554.574 310.611 552.93 309.589 551.115 308.902C549.364 308.239 547.489 307.902 545.597 307.91C543.705 307.917 541.833 308.27 540.088 308.946C538.343 309.623 536.76 310.611 535.428 311.854C534.096 313.097 533.042 314.57 532.325 316.19Z" fill="white"/>
<path d="M538.776 289.587C542.937 287.367 543.381 282.01 542.816 277.597C542.25 273.185 541.305 268.265 544.11 264.657C547.456 260.351 554.18 260.265 559.912 260.125C565.643 259.984 572.623 258.432 574.108 253.309C575.09 249.925 572.99 246.292 569.977 244.168C566.965 242.043 563.195 241.104 559.532 240.211C551.337 238.214 542.874 236.2 534.483 237.298C526.171 238.385 518.657 242.455 513.565 248.628C508.473 254.801 506.214 262.581 507.275 270.283C508.633 280.136 510.603 284.438 509.31 288.782C506.902 296.874 496.518 302.072 496.311 310.462C496.149 317.025 502.416 322.088 508.531 325.421C513.381 328.064 518.616 330.307 524.205 330.926C529.795 331.545 535.813 330.36 539.976 326.856C545.347 322.336 546.675 314.785 545.135 308.222C543.595 301.659 539.645 295.83 535.737 290.17" fill="#3F3D56"/>
</svg>
