<svg width="34" height="34" viewBox="0 0 34 34" fill="none" xmlns="http://www.w3.org/2000/svg">
<path d="M17 10.0938C14.6633 10.0938 12.75 12.0071 12.75 14.3438C12.75 16.6804 14.6633 18.5938 17 18.5938C19.3367 18.5938 21.25 16.6804 21.25 14.3438C21.25 12.0071 19.3367 10.0938 17 10.0938Z" fill="#0D0106"/>
<path d="M17 6.375C12.5902 6.375 9.03125 9.93396 9.03125 14.3438C9.03125 18.3281 15.566 25.9773 16.8132 27.3864C16.9211 27.5192 17.1058 27.5192 17.2117 27.3864C18.434 25.9773 24.9688 18.3281 24.9688 14.3438C24.9688 9.93396 21.4098 6.375 17 6.375ZM17 19.6562C14.0781 19.6562 11.6875 17.2656 11.6875 14.3438C11.6875 11.4219 14.0781 9.03125 17 9.03125C19.9219 9.03125 22.3125 11.4219 22.3125 14.3438C22.3125 17.2656 19.9219 19.6562 17 19.6562Z" fill="#0D0106"/>
</svg>
