<svg width="34" height="34" viewBox="0 0 34 34" fill="none" xmlns="http://www.w3.org/2000/svg">
<path d="M26.2159 21.5737C26.2159 21.8103 26.1744 22.1216 26.0914 22.5034C26.0063 22.8853 25.9171 23.1862 25.8258 23.4061C25.6494 23.8461 25.1348 24.313 24.286 24.8048C23.4954 25.2531 22.713 25.4792 21.939 25.4792C21.7128 25.4792 21.4907 25.4626 21.277 25.4315C21.0612 25.4004 20.8204 25.3464 20.5507 25.2676C20.2809 25.1887 20.0817 25.1244 19.9509 25.0767C19.8202 25.0269 19.5878 24.9376 19.2516 24.8048C18.9154 24.6741 18.7079 24.5952 18.6332 24.5682C17.8093 24.2611 17.0726 23.8959 16.4252 23.4725C15.3481 22.7773 14.2358 21.8311 13.0862 20.6295C11.9386 19.4301 11.0317 18.2659 10.3677 17.1411C9.96301 16.4625 9.61438 15.6926 9.3197 14.8314C9.2948 14.7526 9.22009 14.5367 9.09351 14.184C8.96692 13.8333 8.88184 13.5884 8.83411 13.4535C8.78845 13.3165 8.72827 13.1069 8.65149 12.8268C8.57678 12.5446 8.52283 12.2914 8.49377 12.0673C8.46472 11.8431 8.4502 11.6128 8.4502 11.3741C8.4502 10.5648 8.66394 9.74719 9.09351 8.92126C9.56457 8.03308 10.0107 7.4956 10.4299 7.31091C10.6416 7.21545 10.9301 7.12207 11.2953 7.03491C11.6605 6.94568 11.9573 6.9021 12.1855 6.9021C12.3018 6.9021 12.391 6.91455 12.4491 6.94153C12.6006 6.99548 12.8247 7.32959 13.1194 7.94385C13.2107 8.11194 13.3373 8.34851 13.4971 8.65771C13.6569 8.96484 13.8042 9.24499 13.9391 9.49402C14.074 9.74512 14.2047 9.98169 14.3292 10.1996C14.3562 10.2349 14.4288 10.3448 14.5513 10.5295C14.6737 10.7142 14.7629 10.8719 14.821 10.9985C14.8812 11.1272 14.9103 11.2517 14.9103 11.3741C14.9103 11.5505 14.7899 11.7705 14.5513 12.0341C14.3105 12.2976 14.0511 12.5404 13.7689 12.7604C13.4867 12.9803 13.2252 13.2128 12.9866 13.4597C12.7459 13.7046 12.6255 13.908 12.6255 14.0657C12.6255 14.1445 12.6483 14.2441 12.6898 14.3624C12.7313 14.4807 12.7666 14.572 12.7977 14.6343C12.8268 14.6945 12.8849 14.8003 12.9741 14.9497C13.0613 15.0991 13.1111 15.1842 13.1194 15.2008C13.7585 16.4065 14.489 17.4399 15.3149 18.3011C16.1388 19.1624 17.1266 19.9281 18.2804 20.5963C18.297 20.6046 18.3759 20.6565 18.519 20.7478C18.6622 20.8412 18.7639 20.9034 18.822 20.9325C18.8801 20.9636 18.9673 21.001 19.0814 21.0446C19.1935 21.0902 19.2889 21.111 19.3657 21.111C19.5151 21.111 19.7102 20.9865 19.9447 20.7354C20.1813 20.4843 20.4033 20.2124 20.615 19.9177C20.8246 19.623 21.0549 19.3491 21.3081 19.1001C21.5613 18.849 21.7709 18.7224 21.939 18.7224C22.0573 18.7224 22.1755 18.7535 22.298 18.8158C22.4204 18.8781 22.5698 18.9714 22.7462 19.1001C22.9226 19.2267 23.0284 19.3035 23.0616 19.3304C23.2712 19.4612 23.4974 19.5981 23.7361 19.7393C23.9768 19.8804 24.2445 20.0339 24.5392 20.2C24.8318 20.368 25.0601 20.5009 25.2198 20.5963C25.8092 20.9055 26.1288 21.1379 26.1786 21.2957C26.2035 21.3579 26.2159 21.4492 26.2159 21.5737Z" fill="#0D0106"/>
</svg>
