<svg width="18" height="22" viewBox="0 0 18 22" fill="none" xmlns="http://www.w3.org/2000/svg">
<path d="M5.75008 13.1667L12.2501 6.66667L5.75008 13.1667ZM6.29178 7.20833H6.30261H6.29178ZM11.7084 12.625H11.7192H11.7084ZM16.5834 20.75V3.41667C16.5834 2.22005 15.6134 1.25 14.4167 1.25H3.58341C2.3868 1.25 1.41675 2.22005 1.41675 3.41667V20.75L5.20841 18.5833L9.00008 20.75L12.7917 18.5833L16.5834 20.75ZM6.83341 7.20833C6.83341 7.50749 6.5909 7.75 6.29175 7.75C5.9926 7.75 5.75008 7.50749 5.75008 7.20833C5.75008 6.90918 5.9926 6.66667 6.29175 6.66667C6.5909 6.66667 6.83341 6.90918 6.83341 7.20833ZM12.2501 12.625C12.2501 12.9241 12.0075 13.1667 11.7084 13.1667C11.4093 13.1667 11.1667 12.9241 11.1667 12.625C11.1667 12.3259 11.4093 12.0833 11.7084 12.0833C12.0075 12.0833 12.2501 12.3259 12.2501 12.625Z" stroke="#F0F4F9" stroke-width="2" stroke-linecap="round" stroke-linejoin="round"/>
</svg>
