<svg width="1920" height="1080" viewBox="0 0 1920 1080" fill="none" xmlns="http://www.w3.org/2000/svg">
<g filter="url(#filter0_f)">
<path d="M82.4485 77L108.992 33.7025H77.3486L44.8615 -9H6.91309L-22 33.7025H6.91309L44.8615 77H82.4485Z" stroke="#62A1E4" stroke-opacity="0.9"/>
<path d="M82.4485 589L108.992 545.702H77.3486L44.8615 503H6.91309L-22 545.702H6.91309L44.8615 589H82.4485Z" stroke="#62A1E4" stroke-opacity="0.9"/>
<path d="M213.441 77L239.985 33.7025H208.341L175.854 -9H137.906L108.992 33.7025H137.906L175.854 77H213.441Z" stroke="#62A1E4" stroke-opacity="0.9"/>
<path d="M213.441 589L239.985 545.702H208.341L175.854 503H137.906L108.992 545.702H137.906L175.854 589H213.441Z" stroke="#62A1E4" stroke-opacity="0.9"/>
<path d="M344.433 77L370.977 33.7025H339.333L306.846 -9H268.898L239.985 33.7025H268.898L306.846 77H344.433Z" stroke="#62A1E4" stroke-opacity="0.9"/>
<path d="M344.433 589L370.977 545.702H339.333L306.846 503H268.898L239.985 545.702H268.898L306.846 589H344.433Z" stroke="#62A1E4" stroke-opacity="0.9"/>
<path d="M475.426 77L501.969 33.7025H470.326L437.839 -9H399.89L370.977 33.7025H399.89L437.839 77H475.426Z" stroke="#62A1E4" stroke-opacity="0.9"/>
<path d="M475.426 589L501.969 545.702H470.326L437.839 503H399.89L370.977 545.702H399.89L437.839 589H475.426Z" stroke="#62A1E4" stroke-opacity="0.9"/>
<path d="M605.688 77L632.046 33.7025H600.623L568.363 -9H530.68L501.969 33.7025H530.68L568.363 77H605.688Z" stroke="#62A1E4" stroke-opacity="0.9"/>
<path d="M605.688 589L632.046 545.702H600.623L568.363 503H530.68L501.969 545.702H530.68L568.363 589H605.688Z" stroke="#62A1E4" stroke-opacity="0.9"/>
<path d="M736.494 77L763.038 33.7025H731.394L698.907 -9H660.959L632.046 33.7025H660.959L698.907 77H736.494Z" stroke="#62A1E4" stroke-opacity="0.9"/>
<path d="M1129.47 77L1156.02 33.7025H1124.37L1091.88 -9H1053.94L1025.02 33.7025H1053.94L1091.88 77H1129.47Z" stroke="#62A1E4" stroke-opacity="0.9"/>
<path d="M736.494 589L763.038 545.702H731.394L698.907 503H660.959L632.046 545.702H660.959L698.907 589H736.494Z" stroke="#62A1E4" stroke-opacity="0.9"/>
<path d="M1129.47 589L1156.02 545.702H1124.37L1091.88 503H1053.94L1025.02 545.702H1053.94L1091.88 589H1129.47Z" stroke="#62A1E4" stroke-opacity="0.9"/>
<path d="M867.487 77L894.03 33.7025H862.387L829.9 -9H791.951L763.038 33.7025H791.951L829.9 77H867.487Z" stroke="#62A1E4" stroke-opacity="0.9"/>
<path d="M1260.46 77L1287.01 33.7025H1255.36L1222.88 -9H1184.93L1156.02 33.7025H1184.93L1222.88 77H1260.46Z" stroke="#62A1E4" stroke-opacity="0.9"/>
<path d="M867.487 589L894.03 545.702H862.387L829.9 503H791.951L763.038 545.702H791.951L829.9 589H867.487Z" stroke="#62A1E4" stroke-opacity="0.9"/>
<path d="M1260.46 589L1287.01 545.702H1255.36L1222.88 503H1184.93L1156.02 545.702H1184.93L1222.88 589H1260.46Z" stroke="#62A1E4" stroke-opacity="0.9"/>
<path d="M998.479 77L1025.02 33.7025H993.379L960.892 -9H922.944L894.031 33.7025H922.944L960.892 77H998.479Z" stroke="#62A1E4" stroke-opacity="0.9"/>
<path d="M1391.46 77L1418 33.7025H1386.36L1353.87 -9H1315.92L1287.01 33.7025H1315.92L1353.87 77H1391.46Z" stroke="#62A1E4" stroke-opacity="0.9"/>
<path d="M998.479 589L1025.02 545.702H993.379L960.892 503H922.944L894.031 545.702H922.944L960.892 589H998.479Z" stroke="#62A1E4" stroke-opacity="0.9"/>
<path d="M1391.46 589L1418 545.702H1386.36L1353.87 503H1315.92L1287.01 545.702H1315.92L1353.87 589H1391.46Z" stroke="#62A1E4" stroke-opacity="0.9"/>
<path d="M82.4485 417L108.992 373.702H77.3486L44.8615 331H6.91309L-22 373.702H6.91309L44.8615 417H82.4485Z" stroke="#62A1E4" stroke-opacity="0.9"/>
<path d="M82.4485 929L108.992 885.702H77.3486L44.8615 843H6.91309L-22 885.702H6.91309L44.8615 929H82.4485Z" stroke="#62A1E4" stroke-opacity="0.9"/>
<path d="M213.441 417L239.985 373.702H208.341L175.854 331H137.906L108.992 373.702H137.906L175.854 417H213.441Z" stroke="#62A1E4" stroke-opacity="0.9"/>
<path d="M213.441 929L239.985 885.702H208.341L175.854 843H137.906L108.992 885.702H137.906L175.854 929H213.441Z" stroke="#62A1E4" stroke-opacity="0.9"/>
<path d="M344.433 417L370.977 373.702H339.333L306.846 331H268.898L239.985 373.702H268.898L306.846 417H344.433Z" stroke="#62A1E4" stroke-opacity="0.9"/>
<path d="M344.433 929L370.977 885.702H339.333L306.846 843H268.898L239.985 885.702H268.898L306.846 929H344.433Z" stroke="#62A1E4" stroke-opacity="0.9"/>
<path d="M475.426 417L501.969 373.702H470.326L437.839 331H399.89L370.977 373.702H399.89L437.839 417H475.426Z" stroke="#62A1E4" stroke-opacity="0.9"/>
<path d="M475.426 929L501.969 885.702H470.326L437.839 843H399.89L370.977 885.702H399.89L437.839 929H475.426Z" stroke="#62A1E4" stroke-opacity="0.9"/>
<path d="M605.688 417L632.046 373.702H600.623L568.363 331H530.68L501.969 373.702H530.68L568.363 417H605.688Z" stroke="#62A1E4" stroke-opacity="0.9"/>
<path d="M605.688 929L632.046 885.702H600.623L568.363 843H530.68L501.969 885.702H530.68L568.363 929H605.688Z" stroke="#62A1E4" stroke-opacity="0.9"/>
<path d="M736.494 417L763.038 373.702H731.394L698.907 331H660.959L632.046 373.702H660.959L698.907 417H736.494Z" stroke="#62A1E4" stroke-opacity="0.9"/>
<path d="M1129.47 417L1156.02 373.702H1124.37L1091.88 331H1053.94L1025.02 373.702H1053.94L1091.88 417H1129.47Z" stroke="#62A1E4" stroke-opacity="0.9"/>
<path d="M736.494 929L763.038 885.702H731.394L698.907 843H660.959L632.046 885.702H660.959L698.907 929H736.494Z" stroke="#62A1E4" stroke-opacity="0.9"/>
<path d="M1129.47 929L1156.02 885.702H1124.37L1091.88 843H1053.94L1025.02 885.702H1053.94L1091.88 929H1129.47Z" stroke="#62A1E4" stroke-opacity="0.9"/>
<path d="M867.487 417L894.03 373.702H862.387L829.9 331H791.951L763.038 373.702H791.951L829.9 417H867.487Z" stroke="#62A1E4" stroke-opacity="0.9"/>
<path d="M1260.46 417L1287.01 373.702H1255.36L1222.88 331H1184.93L1156.02 373.702H1184.93L1222.88 417H1260.46Z" stroke="#62A1E4" stroke-opacity="0.9"/>
<path d="M867.487 929L894.03 885.702H862.387L829.9 843H791.951L763.038 885.702H791.951L829.9 929H867.487Z" stroke="#62A1E4" stroke-opacity="0.9"/>
<path d="M1260.46 929L1287.01 885.702H1255.36L1222.88 843H1184.93L1156.02 885.702H1184.93L1222.88 929H1260.46Z" stroke="#62A1E4" stroke-opacity="0.9"/>
<path d="M998.479 417L1025.02 373.702H993.379L960.892 331H922.944L894.031 373.702H922.944L960.892 417H998.479Z" stroke="#62A1E4" stroke-opacity="0.9"/>
<path d="M1391.46 417L1418 373.702H1386.36L1353.87 331H1315.92L1287.01 373.702H1315.92L1353.87 417H1391.46Z" stroke="#62A1E4" stroke-opacity="0.9"/>
<path d="M998.479 929L1025.02 885.702H993.379L960.892 843H922.944L894.031 885.702H922.944L960.892 929H998.479Z" stroke="#62A1E4" stroke-opacity="0.9"/>
<path d="M1391.46 929L1418 885.702H1386.36L1353.87 843H1315.92L1287.01 885.702H1315.92L1353.87 929H1391.46Z" stroke="#62A1E4" stroke-opacity="0.9"/>
<path d="M82.4485 503L108.992 459.702H77.3486L44.8615 417H6.91309L-22 459.702H6.91309L44.8615 503H82.4485Z" stroke="#62A1E4" stroke-opacity="0.9"/>
<path d="M82.4485 1015L108.992 971.702H77.3486L44.8615 929H6.91309L-22 971.702H6.91309L44.8615 1015H82.4485Z" stroke="#62A1E4" stroke-opacity="0.9"/>
<path d="M213.441 503L239.985 459.702H208.341L175.854 417H137.906L108.992 459.702H137.906L175.854 503H213.441Z" stroke="#62A1E4" stroke-opacity="0.9"/>
<path d="M213.441 1015L239.985 971.702H208.341L175.854 929H137.906L108.992 971.702H137.906L175.854 1015H213.441Z" stroke="#62A1E4" stroke-opacity="0.9"/>
<path d="M344.433 503L370.977 459.702H339.333L306.846 417H268.898L239.985 459.702H268.898L306.846 503H344.433Z" stroke="#62A1E4" stroke-opacity="0.9"/>
<path d="M344.433 1015L370.977 971.702H339.333L306.846 929H268.898L239.985 971.702H268.898L306.846 1015H344.433Z" stroke="#62A1E4" stroke-opacity="0.9"/>
<path d="M475.426 503L501.969 459.702H470.326L437.839 417H399.89L370.977 459.702H399.89L437.839 503H475.426Z" stroke="#62A1E4" stroke-opacity="0.9"/>
<path d="M475.426 1015L501.969 971.702H470.326L437.839 929H399.89L370.977 971.702H399.89L437.839 1015H475.426Z" stroke="#62A1E4" stroke-opacity="0.9"/>
<path d="M605.688 503L632.046 459.702H600.623L568.363 417H530.68L501.969 459.702H530.68L568.363 503H605.688Z" stroke="#62A1E4" stroke-opacity="0.9"/>
<path d="M605.688 1015L632.046 971.702H600.623L568.363 929H530.68L501.969 971.702H530.68L568.363 1015H605.688Z" stroke="#62A1E4" stroke-opacity="0.9"/>
<path d="M736.494 503L763.038 459.702H731.394L698.907 417H660.959L632.046 459.702H660.959L698.907 503H736.494Z" stroke="#62A1E4" stroke-opacity="0.9"/>
<path d="M1129.47 503L1156.02 459.702H1124.37L1091.88 417H1053.94L1025.02 459.702H1053.94L1091.88 503H1129.47Z" stroke="#62A1E4" stroke-opacity="0.9"/>
<path d="M736.494 1015L763.038 971.702H731.394L698.907 929H660.959L632.046 971.702H660.959L698.907 1015H736.494Z" stroke="#62A1E4" stroke-opacity="0.9"/>
<path d="M1129.47 1015L1156.02 971.702H1124.37L1091.88 929H1053.94L1025.02 971.702H1053.94L1091.88 1015H1129.47Z" stroke="#62A1E4" stroke-opacity="0.9"/>
<path d="M867.487 503L894.03 459.702H862.387L829.9 417H791.951L763.038 459.702H791.951L829.9 503H867.487Z" stroke="#62A1E4" stroke-opacity="0.9"/>
<path d="M1260.46 503L1287.01 459.702H1255.36L1222.88 417H1184.93L1156.02 459.702H1184.93L1222.88 503H1260.46Z" stroke="#62A1E4" stroke-opacity="0.9"/>
<path d="M867.487 1015L894.03 971.702H862.387L829.9 929H791.951L763.038 971.702H791.951L829.9 1015H867.487Z" stroke="#62A1E4" stroke-opacity="0.9"/>
<path d="M1260.46 1015L1287.01 971.702H1255.36L1222.88 929H1184.93L1156.02 971.702H1184.93L1222.88 1015H1260.46Z" stroke="#62A1E4" stroke-opacity="0.9"/>
<path d="M998.479 503L1025.02 459.702H993.379L960.892 417H922.944L894.031 459.702H922.944L960.892 503H998.479Z" stroke="#62A1E4" stroke-opacity="0.9"/>
<path d="M1391.46 503L1418 459.702H1386.36L1353.87 417H1315.92L1287.01 459.702H1315.92L1353.87 503H1391.46Z" stroke="#62A1E4" stroke-opacity="0.9"/>
<path d="M998.479 1015L1025.02 971.702H993.379L960.892 929H922.944L894.031 971.702H922.944L960.892 1015H998.479Z" stroke="#62A1E4" stroke-opacity="0.9"/>
<path d="M1391.46 1015L1418 971.702H1386.36L1353.87 929H1315.92L1287.01 971.702H1315.92L1353.87 1015H1391.46Z" stroke="#62A1E4" stroke-opacity="0.9"/>
<path d="M82.4485 161L108.992 117.702H77.3486L44.8615 75H6.91309L-22 117.702H6.91309L44.8615 161H82.4485Z" stroke="#62A1E4" stroke-opacity="0.9"/>
<path d="M82.4485 673L108.992 629.702H77.3486L44.8615 587H6.91309L-22 629.702H6.91309L44.8615 673H82.4485Z" stroke="#62A1E4" stroke-opacity="0.9"/>
<path d="M213.441 161L239.985 117.702H208.341L175.854 75H137.906L108.992 117.702H137.906L175.854 161H213.441Z" stroke="#62A1E4" stroke-opacity="0.9"/>
<path d="M213.441 673L239.985 629.702H208.341L175.854 587H137.906L108.992 629.702H137.906L175.854 673H213.441Z" stroke="#62A1E4" stroke-opacity="0.9"/>
<path d="M344.433 161L370.977 117.702H339.333L306.846 75H268.898L239.985 117.702H268.898L306.846 161H344.433Z" stroke="#62A1E4" stroke-opacity="0.9"/>
<path d="M344.433 673L370.977 629.702H339.333L306.846 587H268.898L239.985 629.702H268.898L306.846 673H344.433Z" stroke="#62A1E4" stroke-opacity="0.9"/>
<path d="M475.426 161L501.969 117.702H470.326L437.839 75H399.89L370.977 117.702H399.89L437.839 161H475.426Z" stroke="#62A1E4" stroke-opacity="0.9"/>
<path d="M475.426 673L501.969 629.702H470.326L437.839 587H399.89L370.977 629.702H399.89L437.839 673H475.426Z" stroke="#62A1E4" stroke-opacity="0.9"/>
<path d="M605.688 161L632.046 117.702H600.623L568.363 75H530.68L501.969 117.702H530.68L568.363 161H605.688Z" stroke="#62A1E4" stroke-opacity="0.9"/>
<path d="M605.688 673L632.046 629.702H600.623L568.363 587H530.68L501.969 629.702H530.68L568.363 673H605.688Z" stroke="#62A1E4" stroke-opacity="0.9"/>
<path d="M736.494 161L763.038 117.702H731.394L698.907 75H660.959L632.046 117.702H660.959L698.907 161H736.494Z" stroke="#62A1E4" stroke-opacity="0.9"/>
<path d="M1129.47 161L1156.02 117.702H1124.37L1091.88 75H1053.94L1025.02 117.702H1053.94L1091.88 161H1129.47Z" stroke="#62A1E4" stroke-opacity="0.9"/>
<path d="M736.494 673L763.038 629.702H731.394L698.907 587H660.959L632.046 629.702H660.959L698.907 673H736.494Z" stroke="#62A1E4" stroke-opacity="0.9"/>
<path d="M1129.47 673L1156.02 629.702H1124.37L1091.88 587H1053.94L1025.02 629.702H1053.94L1091.88 673H1129.47Z" stroke="#62A1E4" stroke-opacity="0.9"/>
<path d="M867.487 161L894.03 117.702H862.387L829.9 75H791.951L763.038 117.702H791.951L829.9 161H867.487Z" stroke="#62A1E4" stroke-opacity="0.9"/>
<path d="M1260.46 161L1287.01 117.702H1255.36L1222.88 75H1184.93L1156.02 117.702H1184.93L1222.88 161H1260.46Z" stroke="#62A1E4" stroke-opacity="0.9"/>
<path d="M867.487 673L894.03 629.702H862.387L829.9 587H791.951L763.038 629.702H791.951L829.9 673H867.487Z" stroke="#62A1E4" stroke-opacity="0.9"/>
<path d="M1260.46 673L1287.01 629.702H1255.36L1222.88 587H1184.93L1156.02 629.702H1184.93L1222.88 673H1260.46Z" stroke="#62A1E4" stroke-opacity="0.9"/>
<path d="M998.479 161L1025.02 117.702H993.379L960.892 75H922.944L894.031 117.702H922.944L960.892 161H998.479Z" stroke="#62A1E4" stroke-opacity="0.9"/>
<path d="M1391.46 161L1418 117.702H1386.36L1353.87 75H1315.92L1287.01 117.702H1315.92L1353.87 161H1391.46Z" stroke="#62A1E4" stroke-opacity="0.9"/>
<path d="M998.479 673L1025.02 629.702H993.379L960.892 587H922.944L894.031 629.702H922.944L960.892 673H998.479Z" stroke="#62A1E4" stroke-opacity="0.9"/>
<path d="M1391.46 673L1418 629.702H1386.36L1353.87 587H1315.92L1287.01 629.702H1315.92L1353.87 673H1391.46Z" stroke="#62A1E4" stroke-opacity="0.9"/>
<path d="M82.4485 247L108.992 203.702H77.3486L44.8615 161H6.91309L-22 203.702H6.91309L44.8615 247H82.4485Z" stroke="#62A1E4" stroke-opacity="0.9"/>
<path d="M82.4485 759L108.992 715.702H77.3486L44.8615 673H6.91309L-22 715.702H6.91309L44.8615 759H82.4485Z" stroke="#62A1E4" stroke-opacity="0.9"/>
<path d="M213.441 247L239.985 203.702H208.341L175.854 161H137.906L108.992 203.702H137.906L175.854 247H213.441Z" stroke="#62A1E4" stroke-opacity="0.9"/>
<path d="M213.441 759L239.985 715.702H208.341L175.854 673H137.906L108.992 715.702H137.906L175.854 759H213.441Z" stroke="#62A1E4" stroke-opacity="0.9"/>
<path d="M344.433 247L370.977 203.702H339.333L306.846 161H268.898L239.985 203.702H268.898L306.846 247H344.433Z" stroke="#62A1E4" stroke-opacity="0.9"/>
<path d="M344.433 759L370.977 715.702H339.333L306.846 673H268.898L239.985 715.702H268.898L306.846 759H344.433Z" stroke="#62A1E4" stroke-opacity="0.9"/>
<path d="M475.426 247L501.969 203.702H470.326L437.839 161H399.89L370.977 203.702H399.89L437.839 247H475.426Z" stroke="#62A1E4" stroke-opacity="0.9"/>
<path d="M475.426 759L501.969 715.702H470.326L437.839 673H399.89L370.977 715.702H399.89L437.839 759H475.426Z" stroke="#62A1E4" stroke-opacity="0.9"/>
<path d="M605.688 247L632.046 203.702H600.623L568.363 161H530.68L501.969 203.702H530.68L568.363 247H605.688Z" stroke="#62A1E4" stroke-opacity="0.9"/>
<path d="M605.688 759L632.046 715.702H600.623L568.363 673H530.68L501.969 715.702H530.68L568.363 759H605.688Z" stroke="#62A1E4" stroke-opacity="0.9"/>
<path d="M736.494 247L763.038 203.702H731.394L698.907 161H660.959L632.046 203.702H660.959L698.907 247H736.494Z" stroke="#62A1E4" stroke-opacity="0.9"/>
<path d="M1129.47 247L1156.02 203.702H1124.37L1091.88 161H1053.94L1025.02 203.702H1053.94L1091.88 247H1129.47Z" stroke="#62A1E4" stroke-opacity="0.9"/>
<path d="M736.494 759L763.038 715.702H731.394L698.907 673H660.959L632.046 715.702H660.959L698.907 759H736.494Z" stroke="#62A1E4" stroke-opacity="0.9"/>
<path d="M1129.47 759L1156.02 715.702H1124.37L1091.88 673H1053.94L1025.02 715.702H1053.94L1091.88 759H1129.47Z" stroke="#62A1E4" stroke-opacity="0.9"/>
<path d="M867.487 247L894.03 203.702H862.387L829.9 161H791.951L763.038 203.702H791.951L829.9 247H867.487Z" stroke="#62A1E4" stroke-opacity="0.9"/>
<path d="M1260.46 247L1287.01 203.702H1255.36L1222.88 161H1184.93L1156.02 203.702H1184.93L1222.88 247H1260.46Z" stroke="#62A1E4" stroke-opacity="0.9"/>
<path d="M867.487 759L894.03 715.702H862.387L829.9 673H791.951L763.038 715.702H791.951L829.9 759H867.487Z" stroke="#62A1E4" stroke-opacity="0.9"/>
<path d="M1260.46 759L1287.01 715.702H1255.36L1222.88 673H1184.93L1156.02 715.702H1184.93L1222.88 759H1260.46Z" stroke="#62A1E4" stroke-opacity="0.9"/>
<path d="M998.479 247L1025.02 203.702H993.379L960.892 161H922.944L894.031 203.702H922.944L960.892 247H998.479Z" stroke="#62A1E4" stroke-opacity="0.9"/>
<path d="M1391.46 247L1418 203.702H1386.36L1353.87 161H1315.92L1287.01 203.702H1315.92L1353.87 247H1391.46Z" stroke="#62A1E4" stroke-opacity="0.9"/>
<path d="M998.479 759L1025.02 715.702H993.379L960.892 673H922.944L894.031 715.702H922.944L960.892 759H998.479Z" stroke="#62A1E4" stroke-opacity="0.9"/>
<path d="M1391.46 759L1418 715.702H1386.36L1353.87 673H1315.92L1287.01 715.702H1315.92L1353.87 759H1391.46Z" stroke="#62A1E4" stroke-opacity="0.9"/>
<path d="M82.4485 331L108.992 287.702H77.3486L44.8615 245H6.91309L-22 287.702H6.91309L44.8615 331H82.4485Z" stroke="#62A1E4" stroke-opacity="0.9"/>
<path d="M82.4485 843L108.992 799.702H77.3486L44.8615 757H6.91309L-22 799.702H6.91309L44.8615 843H82.4485Z" stroke="#62A1E4" stroke-opacity="0.9"/>
<path d="M213.441 331L239.985 287.702H208.341L175.854 245H137.906L108.992 287.702H137.906L175.854 331H213.441Z" stroke="#62A1E4" stroke-opacity="0.9"/>
<path d="M213.441 843L239.985 799.702H208.341L175.854 757H137.906L108.992 799.702H137.906L175.854 843H213.441Z" stroke="#62A1E4" stroke-opacity="0.9"/>
<path d="M344.433 331L370.977 287.702H339.333L306.846 245H268.898L239.985 287.702H268.898L306.846 331H344.433Z" stroke="#62A1E4" stroke-opacity="0.9"/>
<path d="M344.433 843L370.977 799.702H339.333L306.846 757H268.898L239.985 799.702H268.898L306.846 843H344.433Z" stroke="#62A1E4" stroke-opacity="0.9"/>
<path d="M475.426 331L501.969 287.702H470.326L437.839 245H399.89L370.977 287.702H399.89L437.839 331H475.426Z" stroke="#62A1E4" stroke-opacity="0.9"/>
<path d="M475.426 843L501.969 799.702H470.326L437.839 757H399.89L370.977 799.702H399.89L437.839 843H475.426Z" stroke="#62A1E4" stroke-opacity="0.9"/>
<path d="M605.688 331L632.046 287.702H600.623L568.363 245H530.68L501.969 287.702H530.68L568.363 331H605.688Z" stroke="#62A1E4" stroke-opacity="0.9"/>
<path d="M605.688 843L632.046 799.702H600.623L568.363 757H530.68L501.969 799.702H530.68L568.363 843H605.688Z" stroke="#62A1E4" stroke-opacity="0.9"/>
<path d="M736.494 331L763.038 287.702H731.394L698.907 245H660.959L632.046 287.702H660.959L698.907 331H736.494Z" stroke="#62A1E4" stroke-opacity="0.9"/>
<path d="M1129.47 331L1156.02 287.702H1124.37L1091.88 245H1053.94L1025.02 287.702H1053.94L1091.88 331H1129.47Z" stroke="#62A1E4" stroke-opacity="0.9"/>
<path d="M736.494 843L763.038 799.702H731.394L698.907 757H660.959L632.046 799.702H660.959L698.907 843H736.494Z" stroke="#62A1E4" stroke-opacity="0.9"/>
<path d="M1129.47 843L1156.02 799.702H1124.37L1091.88 757H1053.94L1025.02 799.702H1053.94L1091.88 843H1129.47Z" stroke="#62A1E4" stroke-opacity="0.9"/>
<path d="M867.487 331L894.03 287.702H862.387L829.9 245H791.951L763.038 287.702H791.951L829.9 331H867.487Z" stroke="#62A1E4" stroke-opacity="0.9"/>
<path d="M1260.46 331L1287.01 287.702H1255.36L1222.88 245H1184.93L1156.02 287.702H1184.93L1222.88 331H1260.46Z" stroke="#62A1E4" stroke-opacity="0.9"/>
<path d="M867.487 843L894.03 799.702H862.387L829.9 757H791.951L763.038 799.702H791.951L829.9 843H867.487Z" stroke="#62A1E4" stroke-opacity="0.9"/>
<path d="M1260.46 843L1287.01 799.702H1255.36L1222.88 757H1184.93L1156.02 799.702H1184.93L1222.88 843H1260.46Z" stroke="#62A1E4" stroke-opacity="0.9"/>
<path d="M998.479 331L1025.02 287.702H993.379L960.892 245H922.944L894.031 287.702H922.944L960.892 331H998.479Z" stroke="#62A1E4" stroke-opacity="0.9"/>
<path d="M1391.46 331L1418 287.702H1386.36L1353.87 245H1315.92L1287.01 287.702H1315.92L1353.87 331H1391.46Z" stroke="#62A1E4" stroke-opacity="0.9"/>
<path d="M998.479 843L1025.02 799.702H993.379L960.892 757H922.944L894.031 799.702H922.944L960.892 843H998.479Z" stroke="#62A1E4" stroke-opacity="0.9"/>
<path d="M1391.46 843L1418 799.702H1386.36L1353.87 757H1315.92L1287.01 799.702H1315.92L1353.87 843H1391.46Z" stroke="#62A1E4" stroke-opacity="0.9"/>
<path d="M82.4485 589L108.992 545.702H77.3486L44.8615 503H6.91309L-22 545.702H6.91309L44.8615 589H82.4485Z" stroke="#62A1E4" stroke-opacity="0.9"/>
<path d="M213.441 77L239.985 33.7025H208.341L175.854 -9H137.906L108.992 33.7025H137.906L175.854 77H213.441Z" stroke="#62A1E4" stroke-opacity="0.9"/>
<path d="M213.441 589L239.985 545.702H208.341L175.854 503H137.906L108.992 545.702H137.906L175.854 589H213.441Z" stroke="#62A1E4" stroke-opacity="0.9"/>
<path d="M344.433 77L370.977 33.7025H339.333L306.846 -9H268.898L239.985 33.7025H268.898L306.846 77H344.433Z" stroke="#62A1E4" stroke-opacity="0.9"/>
<path d="M344.433 589L370.977 545.702H339.333L306.846 503H268.898L239.985 545.702H268.898L306.846 589H344.433Z" stroke="#62A1E4" stroke-opacity="0.9"/>
<path d="M475.426 77L501.969 33.7025H470.326L437.839 -9H399.89L370.977 33.7025H399.89L437.839 77H475.426Z" stroke="#62A1E4" stroke-opacity="0.9"/>
<path d="M475.426 589L501.969 545.702H470.326L437.839 503H399.89L370.977 545.702H399.89L437.839 589H475.426Z" stroke="#62A1E4" stroke-opacity="0.9"/>
<path d="M605.688 77L632.046 33.7025H600.623L568.363 -9H530.68L501.969 33.7025H530.68L568.363 77H605.688Z" stroke="#62A1E4" stroke-opacity="0.9"/>
<path d="M605.688 589L632.046 545.702H600.623L568.363 503H530.68L501.969 545.702H530.68L568.363 589H605.688Z" stroke="#62A1E4" stroke-opacity="0.9"/>
<path d="M736.494 77L763.038 33.7025H731.394L698.907 -9H660.959L632.046 33.7025H660.959L698.907 77H736.494Z" stroke="#62A1E4" stroke-opacity="0.9"/>
<path d="M1129.47 77L1156.02 33.7025H1124.37L1091.88 -9H1053.94L1025.02 33.7025H1053.94L1091.88 77H1129.47Z" stroke="#62A1E4" stroke-opacity="0.9"/>
<path d="M736.494 589L763.038 545.702H731.394L698.907 503H660.959L632.046 545.702H660.959L698.907 589H736.494Z" stroke="#62A1E4" stroke-opacity="0.9"/>
<path d="M1129.47 589L1156.02 545.702H1124.37L1091.88 503H1053.94L1025.02 545.702H1053.94L1091.88 589H1129.47Z" stroke="#62A1E4" stroke-opacity="0.9"/>
<path d="M867.487 77L894.03 33.7025H862.387L829.9 -9H791.951L763.038 33.7025H791.951L829.9 77H867.487Z" stroke="#62A1E4" stroke-opacity="0.9"/>
<path d="M1260.46 77L1287.01 33.7025H1255.36L1222.88 -9H1184.93L1156.02 33.7025H1184.93L1222.88 77H1260.46Z" stroke="#62A1E4" stroke-opacity="0.9"/>
<path d="M867.487 589L894.03 545.702H862.387L829.9 503H791.951L763.038 545.702H791.951L829.9 589H867.487Z" stroke="#62A1E4" stroke-opacity="0.9"/>
<path d="M1260.46 589L1287.01 545.702H1255.36L1222.88 503H1184.93L1156.02 545.702H1184.93L1222.88 589H1260.46Z" stroke="#62A1E4" stroke-opacity="0.9"/>
<path d="M998.479 77L1025.02 33.7025H993.379L960.892 -9H922.944L894.031 33.7025H922.944L960.892 77H998.479Z" stroke="#62A1E4" stroke-opacity="0.9"/>
<path d="M1391.46 77L1418 33.7025H1386.36L1353.87 -9H1315.92L1287.01 33.7025H1315.92L1353.87 77H1391.46Z" stroke="#62A1E4" stroke-opacity="0.9"/>
<path d="M998.479 589L1025.02 545.702H993.379L960.892 503H922.944L894.031 545.702H922.944L960.892 589H998.479Z" stroke="#62A1E4" stroke-opacity="0.9"/>
<path d="M1391.46 589L1418 545.702H1386.36L1353.87 503H1315.92L1287.01 545.702H1315.92L1353.87 589H1391.46Z" stroke="#62A1E4" stroke-opacity="0.9"/>
<path d="M82.4485 417L108.992 373.702H77.3486L44.8615 331H6.91309L-22 373.702H6.91309L44.8615 417H82.4485Z" stroke="#62A1E4" stroke-opacity="0.9"/>
<path d="M82.4485 929L108.992 885.702H77.3486L44.8615 843H6.91309L-22 885.702H6.91309L44.8615 929H82.4485Z" stroke="#62A1E4" stroke-opacity="0.9"/>
<path d="M213.441 417L239.985 373.702H208.341L175.854 331H137.906L108.992 373.702H137.906L175.854 417H213.441Z" stroke="#62A1E4" stroke-opacity="0.9"/>
<path d="M213.441 929L239.985 885.702H208.341L175.854 843H137.906L108.992 885.702H137.906L175.854 929H213.441Z" stroke="#62A1E4" stroke-opacity="0.9"/>
<path d="M344.433 417L370.977 373.702H339.333L306.846 331H268.898L239.985 373.702H268.898L306.846 417H344.433Z" stroke="#62A1E4" stroke-opacity="0.9"/>
<path d="M344.433 929L370.977 885.702H339.333L306.846 843H268.898L239.985 885.702H268.898L306.846 929H344.433Z" stroke="#62A1E4" stroke-opacity="0.9"/>
<path d="M475.426 417L501.969 373.702H470.326L437.839 331H399.89L370.977 373.702H399.89L437.839 417H475.426Z" stroke="#62A1E4" stroke-opacity="0.9"/>
<path d="M475.426 929L501.969 885.702H470.326L437.839 843H399.89L370.977 885.702H399.89L437.839 929H475.426Z" stroke="#62A1E4" stroke-opacity="0.9"/>
<path d="M605.688 417L632.046 373.702H600.623L568.363 331H530.68L501.969 373.702H530.68L568.363 417H605.688Z" stroke="#62A1E4" stroke-opacity="0.9"/>
<path d="M605.688 929L632.046 885.702H600.623L568.363 843H530.68L501.969 885.702H530.68L568.363 929H605.688Z" stroke="#62A1E4" stroke-opacity="0.9"/>
<path d="M736.494 417L763.038 373.702H731.394L698.907 331H660.959L632.046 373.702H660.959L698.907 417H736.494Z" stroke="#62A1E4" stroke-opacity="0.9"/>
<path d="M1129.47 417L1156.02 373.702H1124.37L1091.88 331H1053.94L1025.02 373.702H1053.94L1091.88 417H1129.47Z" stroke="#62A1E4" stroke-opacity="0.9"/>
<path d="M736.494 929L763.038 885.702H731.394L698.907 843H660.959L632.046 885.702H660.959L698.907 929H736.494Z" stroke="#62A1E4" stroke-opacity="0.9"/>
<path d="M1129.47 929L1156.02 885.702H1124.37L1091.88 843H1053.94L1025.02 885.702H1053.94L1091.88 929H1129.47Z" stroke="#62A1E4" stroke-opacity="0.9"/>
<path d="M867.487 417L894.03 373.702H862.387L829.9 331H791.951L763.038 373.702H791.951L829.9 417H867.487Z" stroke="#62A1E4" stroke-opacity="0.9"/>
<path d="M1260.46 417L1287.01 373.702H1255.36L1222.88 331H1184.93L1156.02 373.702H1184.93L1222.88 417H1260.46Z" stroke="#62A1E4" stroke-opacity="0.9"/>
<path d="M867.487 929L894.03 885.702H862.387L829.9 843H791.951L763.038 885.702H791.951L829.9 929H867.487Z" stroke="#62A1E4" stroke-opacity="0.9"/>
<path d="M1260.46 929L1287.01 885.702H1255.36L1222.88 843H1184.93L1156.02 885.702H1184.93L1222.88 929H1260.46Z" stroke="#62A1E4" stroke-opacity="0.9"/>
<path d="M998.479 417L1025.02 373.702H993.379L960.892 331H922.944L894.031 373.702H922.944L960.892 417H998.479Z" stroke="#62A1E4" stroke-opacity="0.9"/>
<path d="M1391.46 417L1418 373.702H1386.36L1353.87 331H1315.92L1287.01 373.702H1315.92L1353.87 417H1391.46Z" stroke="#62A1E4" stroke-opacity="0.9"/>
<path d="M998.479 929L1025.02 885.702H993.379L960.892 843H922.944L894.031 885.702H922.944L960.892 929H998.479Z" stroke="#62A1E4" stroke-opacity="0.9"/>
<path d="M1391.46 929L1418 885.702H1386.36L1353.87 843H1315.92L1287.01 885.702H1315.92L1353.87 929H1391.46Z" stroke="#62A1E4" stroke-opacity="0.9"/>
<path d="M82.4485 503L108.992 459.702H77.3486L44.8615 417H6.91309L-22 459.702H6.91309L44.8615 503H82.4485Z" stroke="#62A1E4" stroke-opacity="0.9"/>
<path d="M82.4485 1015L108.992 971.702H77.3486L44.8615 929H6.91309L-22 971.702H6.91309L44.8615 1015H82.4485Z" stroke="#62A1E4" stroke-opacity="0.9"/>
<path d="M213.441 503L239.985 459.702H208.341L175.854 417H137.906L108.992 459.702H137.906L175.854 503H213.441Z" stroke="#62A1E4" stroke-opacity="0.9"/>
<path d="M213.441 1015L239.985 971.702H208.341L175.854 929H137.906L108.992 971.702H137.906L175.854 1015H213.441Z" stroke="#62A1E4" stroke-opacity="0.9"/>
<path d="M344.433 503L370.977 459.702H339.333L306.846 417H268.898L239.985 459.702H268.898L306.846 503H344.433Z" stroke="#62A1E4" stroke-opacity="0.9"/>
<path d="M344.433 1015L370.977 971.702H339.333L306.846 929H268.898L239.985 971.702H268.898L306.846 1015H344.433Z" stroke="#62A1E4" stroke-opacity="0.9"/>
<path d="M475.426 503L501.969 459.702H470.326L437.839 417H399.89L370.977 459.702H399.89L437.839 503H475.426Z" stroke="#62A1E4" stroke-opacity="0.9"/>
<path d="M475.426 1015L501.969 971.702H470.326L437.839 929H399.89L370.977 971.702H399.89L437.839 1015H475.426Z" stroke="#62A1E4" stroke-opacity="0.9"/>
<path d="M605.688 503L632.046 459.702H600.623L568.363 417H530.68L501.969 459.702H530.68L568.363 503H605.688Z" stroke="#62A1E4" stroke-opacity="0.9"/>
<path d="M605.688 1015L632.046 971.702H600.623L568.363 929H530.68L501.969 971.702H530.68L568.363 1015H605.688Z" stroke="#62A1E4" stroke-opacity="0.9"/>
<path d="M736.494 503L763.038 459.702H731.394L698.907 417H660.959L632.046 459.702H660.959L698.907 503H736.494Z" stroke="#62A1E4" stroke-opacity="0.9"/>
<path d="M1129.47 503L1156.02 459.702H1124.37L1091.88 417H1053.94L1025.02 459.702H1053.94L1091.88 503H1129.47Z" stroke="#62A1E4" stroke-opacity="0.9"/>
<path d="M736.494 1015L763.038 971.702H731.394L698.907 929H660.959L632.046 971.702H660.959L698.907 1015H736.494Z" stroke="#62A1E4" stroke-opacity="0.9"/>
<path d="M1129.47 1015L1156.02 971.702H1124.37L1091.88 929H1053.94L1025.02 971.702H1053.94L1091.88 1015H1129.47Z" stroke="#62A1E4" stroke-opacity="0.9"/>
<path d="M867.487 503L894.03 459.702H862.387L829.9 417H791.951L763.038 459.702H791.951L829.9 503H867.487Z" stroke="#62A1E4" stroke-opacity="0.9"/>
<path d="M1260.46 503L1287.01 459.702H1255.36L1222.88 417H1184.93L1156.02 459.702H1184.93L1222.88 503H1260.46Z" stroke="#62A1E4" stroke-opacity="0.9"/>
<path d="M867.487 1015L894.03 971.702H862.387L829.9 929H791.951L763.038 971.702H791.951L829.9 1015H867.487Z" stroke="#62A1E4" stroke-opacity="0.9"/>
<path d="M1260.46 1015L1287.01 971.702H1255.36L1222.88 929H1184.93L1156.02 971.702H1184.93L1222.88 1015H1260.46Z" stroke="#62A1E4" stroke-opacity="0.9"/>
<path d="M998.479 503L1025.02 459.702H993.379L960.892 417H922.944L894.031 459.702H922.944L960.892 503H998.479Z" stroke="#62A1E4" stroke-opacity="0.9"/>
<path d="M1391.46 503L1418 459.702H1386.36L1353.87 417H1315.92L1287.01 459.702H1315.92L1353.87 503H1391.46Z" stroke="#62A1E4" stroke-opacity="0.9"/>
<path d="M998.479 1015L1025.02 971.702H993.379L960.892 929H922.944L894.031 971.702H922.944L960.892 1015H998.479Z" stroke="#62A1E4" stroke-opacity="0.9"/>
<path d="M1391.46 1015L1418 971.702H1386.36L1353.87 929H1315.92L1287.01 971.702H1315.92L1353.87 1015H1391.46Z" stroke="#62A1E4" stroke-opacity="0.9"/>
<path d="M82.4485 161L108.992 117.702H77.3486L44.8615 75H6.91309L-22 117.702H6.91309L44.8615 161H82.4485Z" stroke="#62A1E4" stroke-opacity="0.9"/>
<path d="M82.4485 673L108.992 629.702H77.3486L44.8615 587H6.91309L-22 629.702H6.91309L44.8615 673H82.4485Z" stroke="#62A1E4" stroke-opacity="0.9"/>
<path d="M213.441 161L239.985 117.702H208.341L175.854 75H137.906L108.992 117.702H137.906L175.854 161H213.441Z" stroke="#62A1E4" stroke-opacity="0.9"/>
<path d="M213.441 673L239.985 629.702H208.341L175.854 587H137.906L108.992 629.702H137.906L175.854 673H213.441Z" stroke="#62A1E4" stroke-opacity="0.9"/>
<path d="M344.433 161L370.977 117.702H339.333L306.846 75H268.898L239.985 117.702H268.898L306.846 161H344.433Z" stroke="#62A1E4" stroke-opacity="0.9"/>
<path d="M344.433 673L370.977 629.702H339.333L306.846 587H268.898L239.985 629.702H268.898L306.846 673H344.433Z" stroke="#62A1E4" stroke-opacity="0.9"/>
<path d="M475.426 161L501.969 117.702H470.326L437.839 75H399.89L370.977 117.702H399.89L437.839 161H475.426Z" stroke="#62A1E4" stroke-opacity="0.9"/>
<path d="M475.426 673L501.969 629.702H470.326L437.839 587H399.89L370.977 629.702H399.89L437.839 673H475.426Z" stroke="#62A1E4" stroke-opacity="0.9"/>
<path d="M605.688 161L632.046 117.702H600.623L568.363 75H530.68L501.969 117.702H530.68L568.363 161H605.688Z" stroke="#62A1E4" stroke-opacity="0.9"/>
<path d="M605.688 673L632.046 629.702H600.623L568.363 587H530.68L501.969 629.702H530.68L568.363 673H605.688Z" stroke="#62A1E4" stroke-opacity="0.9"/>
<path d="M736.494 161L763.038 117.702H731.394L698.907 75H660.959L632.046 117.702H660.959L698.907 161H736.494Z" stroke="#62A1E4" stroke-opacity="0.9"/>
<path d="M1129.47 161L1156.02 117.702H1124.37L1091.88 75H1053.94L1025.02 117.702H1053.94L1091.88 161H1129.47Z" stroke="#62A1E4" stroke-opacity="0.9"/>
<path d="M736.494 673L763.038 629.702H731.394L698.907 587H660.959L632.046 629.702H660.959L698.907 673H736.494Z" stroke="#62A1E4" stroke-opacity="0.9"/>
<path d="M1129.47 673L1156.02 629.702H1124.37L1091.88 587H1053.94L1025.02 629.702H1053.94L1091.88 673H1129.47Z" stroke="#62A1E4" stroke-opacity="0.9"/>
<path d="M867.487 161L894.03 117.702H862.387L829.9 75H791.951L763.038 117.702H791.951L829.9 161H867.487Z" stroke="#62A1E4" stroke-opacity="0.9"/>
<path d="M1260.46 161L1287.01 117.702H1255.36L1222.88 75H1184.93L1156.02 117.702H1184.93L1222.88 161H1260.46Z" stroke="#62A1E4" stroke-opacity="0.9"/>
<path d="M867.487 673L894.03 629.702H862.387L829.9 587H791.951L763.038 629.702H791.951L829.9 673H867.487Z" stroke="#62A1E4" stroke-opacity="0.9"/>
<path d="M1260.46 673L1287.01 629.702H1255.36L1222.88 587H1184.93L1156.02 629.702H1184.93L1222.88 673H1260.46Z" stroke="#62A1E4" stroke-opacity="0.9"/>
<path d="M998.479 161L1025.02 117.702H993.379L960.892 75H922.944L894.031 117.702H922.944L960.892 161H998.479Z" stroke="#62A1E4" stroke-opacity="0.9"/>
<path d="M1391.46 161L1418 117.702H1386.36L1353.87 75H1315.92L1287.01 117.702H1315.92L1353.87 161H1391.46Z" stroke="#62A1E4" stroke-opacity="0.9"/>
<path d="M998.479 673L1025.02 629.702H993.379L960.892 587H922.944L894.031 629.702H922.944L960.892 673H998.479Z" stroke="#62A1E4" stroke-opacity="0.9"/>
<path d="M1391.46 673L1418 629.702H1386.36L1353.87 587H1315.92L1287.01 629.702H1315.92L1353.87 673H1391.46Z" stroke="#62A1E4" stroke-opacity="0.9"/>
<path d="M82.4485 247L108.992 203.702H77.3486L44.8615 161H6.91309L-22 203.702H6.91309L44.8615 247H82.4485Z" stroke="#62A1E4" stroke-opacity="0.9"/>
<path d="M82.4485 759L108.992 715.702H77.3486L44.8615 673H6.91309L-22 715.702H6.91309L44.8615 759H82.4485Z" stroke="#62A1E4" stroke-opacity="0.9"/>
<path d="M213.441 247L239.985 203.702H208.341L175.854 161H137.906L108.992 203.702H137.906L175.854 247H213.441Z" stroke="#62A1E4" stroke-opacity="0.9"/>
<path d="M213.441 759L239.985 715.702H208.341L175.854 673H137.906L108.992 715.702H137.906L175.854 759H213.441Z" stroke="#62A1E4" stroke-opacity="0.9"/>
<path d="M344.433 247L370.977 203.702H339.333L306.846 161H268.898L239.985 203.702H268.898L306.846 247H344.433Z" stroke="#62A1E4" stroke-opacity="0.9"/>
<path d="M344.433 759L370.977 715.702H339.333L306.846 673H268.898L239.985 715.702H268.898L306.846 759H344.433Z" stroke="#62A1E4" stroke-opacity="0.9"/>
<path d="M475.426 247L501.969 203.702H470.326L437.839 161H399.89L370.977 203.702H399.89L437.839 247H475.426Z" stroke="#62A1E4" stroke-opacity="0.9"/>
<path d="M475.426 759L501.969 715.702H470.326L437.839 673H399.89L370.977 715.702H399.89L437.839 759H475.426Z" stroke="#62A1E4" stroke-opacity="0.9"/>
<path d="M605.688 247L632.046 203.702H600.623L568.363 161H530.68L501.969 203.702H530.68L568.363 247H605.688Z" stroke="#62A1E4" stroke-opacity="0.9"/>
<path d="M605.688 759L632.046 715.702H600.623L568.363 673H530.68L501.969 715.702H530.68L568.363 759H605.688Z" stroke="#62A1E4" stroke-opacity="0.9"/>
<path d="M736.494 247L763.038 203.702H731.394L698.907 161H660.959L632.046 203.702H660.959L698.907 247H736.494Z" stroke="#62A1E4" stroke-opacity="0.9"/>
<path d="M1129.47 247L1156.02 203.702H1124.37L1091.88 161H1053.94L1025.02 203.702H1053.94L1091.88 247H1129.47Z" stroke="#62A1E4" stroke-opacity="0.9"/>
<path d="M736.494 759L763.038 715.702H731.394L698.907 673H660.959L632.046 715.702H660.959L698.907 759H736.494Z" stroke="#62A1E4" stroke-opacity="0.9"/>
<path d="M1129.47 759L1156.02 715.702H1124.37L1091.88 673H1053.94L1025.02 715.702H1053.94L1091.88 759H1129.47Z" stroke="#62A1E4" stroke-opacity="0.9"/>
<path d="M867.487 247L894.03 203.702H862.387L829.9 161H791.951L763.038 203.702H791.951L829.9 247H867.487Z" stroke="#62A1E4" stroke-opacity="0.9"/>
<path d="M1260.46 247L1287.01 203.702H1255.36L1222.88 161H1184.93L1156.02 203.702H1184.93L1222.88 247H1260.46Z" stroke="#62A1E4" stroke-opacity="0.9"/>
<path d="M867.487 759L894.03 715.702H862.387L829.9 673H791.951L763.038 715.702H791.951L829.9 759H867.487Z" stroke="#62A1E4" stroke-opacity="0.9"/>
<path d="M1260.46 759L1287.01 715.702H1255.36L1222.88 673H1184.93L1156.02 715.702H1184.93L1222.88 759H1260.46Z" stroke="#62A1E4" stroke-opacity="0.9"/>
<path d="M998.479 247L1025.02 203.702H993.379L960.892 161H922.944L894.031 203.702H922.944L960.892 247H998.479Z" stroke="#62A1E4" stroke-opacity="0.9"/>
<path d="M1391.46 247L1418 203.702H1386.36L1353.87 161H1315.92L1287.01 203.702H1315.92L1353.87 247H1391.46Z" stroke="#62A1E4" stroke-opacity="0.9"/>
<path d="M998.479 759L1025.02 715.702H993.379L960.892 673H922.944L894.031 715.702H922.944L960.892 759H998.479Z" stroke="#62A1E4" stroke-opacity="0.9"/>
<path d="M1391.46 759L1418 715.702H1386.36L1353.87 673H1315.92L1287.01 715.702H1315.92L1353.87 759H1391.46Z" stroke="#62A1E4" stroke-opacity="0.9"/>
<path d="M82.4485 331L108.992 287.702H77.3486L44.8615 245H6.91309L-22 287.702H6.91309L44.8615 331H82.4485Z" stroke="#62A1E4" stroke-opacity="0.9"/>
<path d="M82.4485 843L108.992 799.702H77.3486L44.8615 757H6.91309L-22 799.702H6.91309L44.8615 843H82.4485Z" stroke="#62A1E4" stroke-opacity="0.9"/>
<path d="M213.441 331L239.985 287.702H208.341L175.854 245H137.906L108.992 287.702H137.906L175.854 331H213.441Z" stroke="#62A1E4" stroke-opacity="0.9"/>
<path d="M213.441 843L239.985 799.702H208.341L175.854 757H137.906L108.992 799.702H137.906L175.854 843H213.441Z" stroke="#62A1E4" stroke-opacity="0.9"/>
<path d="M344.433 331L370.977 287.702H339.333L306.846 245H268.898L239.985 287.702H268.898L306.846 331H344.433Z" stroke="#62A1E4" stroke-opacity="0.9"/>
<path d="M344.433 843L370.977 799.702H339.333L306.846 757H268.898L239.985 799.702H268.898L306.846 843H344.433Z" stroke="#62A1E4" stroke-opacity="0.9"/>
<path d="M475.426 331L501.969 287.702H470.326L437.839 245H399.89L370.977 287.702H399.89L437.839 331H475.426Z" stroke="#62A1E4" stroke-opacity="0.9"/>
<path d="M475.426 843L501.969 799.702H470.326L437.839 757H399.89L370.977 799.702H399.89L437.839 843H475.426Z" stroke="#62A1E4" stroke-opacity="0.9"/>
<path d="M605.688 331L632.046 287.702H600.623L568.363 245H530.68L501.969 287.702H530.68L568.363 331H605.688Z" stroke="#62A1E4" stroke-opacity="0.9"/>
<path d="M605.688 843L632.046 799.702H600.623L568.363 757H530.68L501.969 799.702H530.68L568.363 843H605.688Z" stroke="#62A1E4" stroke-opacity="0.9"/>
<path d="M736.494 331L763.038 287.702H731.394L698.907 245H660.959L632.046 287.702H660.959L698.907 331H736.494Z" stroke="#62A1E4" stroke-opacity="0.9"/>
<path d="M1129.47 331L1156.02 287.702H1124.37L1091.88 245H1053.94L1025.02 287.702H1053.94L1091.88 331H1129.47Z" stroke="#62A1E4" stroke-opacity="0.9"/>
<path d="M736.494 843L763.038 799.702H731.394L698.907 757H660.959L632.046 799.702H660.959L698.907 843H736.494Z" stroke="#62A1E4" stroke-opacity="0.9"/>
<path d="M1129.47 843L1156.02 799.702H1124.37L1091.88 757H1053.94L1025.02 799.702H1053.94L1091.88 843H1129.47Z" stroke="#62A1E4" stroke-opacity="0.9"/>
<path d="M867.487 331L894.03 287.702H862.387L829.9 245H791.951L763.038 287.702H791.951L829.9 331H867.487Z" stroke="#62A1E4" stroke-opacity="0.9"/>
<path d="M1260.46 331L1287.01 287.702H1255.36L1222.88 245H1184.93L1156.02 287.702H1184.93L1222.88 331H1260.46Z" stroke="#62A1E4" stroke-opacity="0.9"/>
<path d="M867.487 843L894.03 799.702H862.387L829.9 757H791.951L763.038 799.702H791.951L829.9 843H867.487Z" stroke="#62A1E4" stroke-opacity="0.9"/>
<path d="M1260.46 843L1287.01 799.702H1255.36L1222.88 757H1184.93L1156.02 799.702H1184.93L1222.88 843H1260.46Z" stroke="#62A1E4" stroke-opacity="0.9"/>
<path d="M998.479 331L1025.02 287.702H993.379L960.892 245H922.944L894.031 287.702H922.944L960.892 331H998.479Z" stroke="#62A1E4" stroke-opacity="0.9"/>
<path d="M1391.46 331L1418 287.702H1386.36L1353.87 245H1315.92L1287.01 287.702H1315.92L1353.87 331H1391.46Z" stroke="#62A1E4" stroke-opacity="0.9"/>
<path d="M998.479 843L1025.02 799.702H993.379L960.892 757H922.944L894.031 799.702H922.944L960.892 843H998.479Z" stroke="#62A1E4" stroke-opacity="0.9"/>
<path d="M1391.46 843L1418 799.702H1386.36L1353.87 757H1315.92L1287.01 799.702H1315.92L1353.87 843H1391.46Z" stroke="#62A1E4" stroke-opacity="0.9"/>
<path d="M1653.44 76L1679.98 32.7025H1648.34L1615.85 -10H1577.91L1548.99 32.7025H1577.91L1615.85 76H1653.44Z" stroke="#62A1E4" stroke-opacity="0.9"/>
<path d="M1653.44 588L1679.98 544.702H1648.34L1615.85 502H1577.91L1548.99 544.702H1577.91L1615.85 588H1653.44Z" stroke="#62A1E4" stroke-opacity="0.9"/>
<path d="M1784.43 76L1810.98 32.7025H1779.33L1746.85 -10H1708.9L1679.98 32.7025H1708.9L1746.85 76H1784.43Z" stroke="#62A1E4" stroke-opacity="0.9"/>
<path d="M1784.43 588L1810.98 544.702H1779.33L1746.85 502H1708.9L1679.98 544.702H1708.9L1746.85 588H1784.43Z" stroke="#62A1E4" stroke-opacity="0.9"/>
<path d="M1522.45 76L1548.99 32.7025H1517.35L1484.86 -10H1446.91L1418 32.7025H1446.91L1484.86 76H1522.45Z" stroke="#62A1E4" stroke-opacity="0.9"/>
<path d="M1915.43 76L1941.97 32.7025H1910.33L1877.84 -10H1839.89L1810.98 32.7025H1839.89L1877.84 76H1915.43Z" stroke="#62A1E4" stroke-opacity="0.9"/>
<path d="M1522.45 588L1548.99 544.702H1517.35L1484.86 502H1446.91L1418 544.702H1446.91L1484.86 588H1522.45Z" stroke="#62A1E4" stroke-opacity="0.9"/>
<path d="M1915.43 588L1941.97 544.702H1910.33L1877.84 502H1839.89L1810.98 544.702H1839.89L1877.84 588H1915.43Z" stroke="#62A1E4" stroke-opacity="0.9"/>
<path d="M1653.44 416L1679.98 372.702H1648.34L1615.85 330H1577.91L1548.99 372.702H1577.91L1615.85 416H1653.44Z" stroke="#62A1E4" stroke-opacity="0.9"/>
<path d="M1653.44 928L1679.98 884.702H1648.34L1615.85 842H1577.91L1548.99 884.702H1577.91L1615.85 928H1653.44Z" stroke="#62A1E4" stroke-opacity="0.9"/>
<path d="M1784.43 416L1810.98 372.702H1779.33L1746.85 330H1708.9L1679.98 372.702H1708.9L1746.85 416H1784.43Z" stroke="#62A1E4" stroke-opacity="0.9"/>
<path d="M1784.43 928L1810.98 884.702H1779.33L1746.85 842H1708.9L1679.98 884.702H1708.9L1746.85 928H1784.43Z" stroke="#62A1E4" stroke-opacity="0.9"/>
<path d="M1522.45 416L1548.99 372.702H1517.35L1484.86 330H1446.91L1418 372.702H1446.91L1484.86 416H1522.45Z" stroke="#62A1E4" stroke-opacity="0.9"/>
<path d="M1915.43 416L1941.97 372.702H1910.33L1877.84 330H1839.89L1810.98 372.702H1839.89L1877.84 416H1915.43Z" stroke="#62A1E4" stroke-opacity="0.9"/>
<path d="M1522.45 928L1548.99 884.702H1517.35L1484.86 842H1446.91L1418 884.702H1446.91L1484.86 928H1522.45Z" stroke="#62A1E4" stroke-opacity="0.9"/>
<path d="M1915.43 928L1941.97 884.702H1910.33L1877.84 842H1839.89L1810.98 884.702H1839.89L1877.84 928H1915.43Z" stroke="#62A1E4" stroke-opacity="0.9"/>
<path d="M1653.44 502L1679.98 458.702H1648.34L1615.85 416H1577.91L1548.99 458.702H1577.91L1615.85 502H1653.44Z" stroke="#62A1E4" stroke-opacity="0.9"/>
<path d="M1653.44 1014L1679.98 970.702H1648.34L1615.85 928H1577.91L1548.99 970.702H1577.91L1615.85 1014H1653.44Z" stroke="#62A1E4" stroke-opacity="0.9"/>
<path d="M1784.43 502L1810.98 458.702H1779.33L1746.85 416H1708.9L1679.98 458.702H1708.9L1746.85 502H1784.43Z" stroke="#62A1E4" stroke-opacity="0.9"/>
<path d="M1784.43 1014L1810.98 970.702H1779.33L1746.85 928H1708.9L1679.98 970.702H1708.9L1746.85 1014H1784.43Z" stroke="#62A1E4" stroke-opacity="0.9"/>
<path d="M1522.45 502L1548.99 458.702H1517.35L1484.86 416H1446.91L1418 458.702H1446.91L1484.86 502H1522.45Z" stroke="#62A1E4" stroke-opacity="0.9"/>
<path d="M1915.43 502L1941.97 458.702H1910.33L1877.84 416H1839.89L1810.98 458.702H1839.89L1877.84 502H1915.43Z" stroke="#62A1E4" stroke-opacity="0.9"/>
<path d="M1522.45 1014L1548.99 970.702H1517.35L1484.86 928H1446.91L1418 970.702H1446.91L1484.86 1014H1522.45Z" stroke="#62A1E4" stroke-opacity="0.9"/>
<path d="M1915.43 1014L1941.97 970.702H1910.33L1877.84 928H1839.89L1810.98 970.702H1839.89L1877.84 1014H1915.43Z" stroke="#62A1E4" stroke-opacity="0.9"/>
<path d="M1653.44 160L1679.98 116.702H1648.34L1615.85 74H1577.91L1548.99 116.702H1577.91L1615.85 160H1653.44Z" stroke="#62A1E4" stroke-opacity="0.9"/>
<path d="M1653.44 672L1679.98 628.702H1648.34L1615.85 586H1577.91L1548.99 628.702H1577.91L1615.85 672H1653.44Z" stroke="#62A1E4" stroke-opacity="0.9"/>
<path d="M1784.43 160L1810.98 116.702H1779.33L1746.85 74H1708.9L1679.98 116.702H1708.9L1746.85 160H1784.43Z" stroke="#62A1E4" stroke-opacity="0.9"/>
<path d="M1784.43 672L1810.98 628.702H1779.33L1746.85 586H1708.9L1679.98 628.702H1708.9L1746.85 672H1784.43Z" stroke="#62A1E4" stroke-opacity="0.9"/>
<path d="M1522.45 160L1548.99 116.702H1517.35L1484.86 74H1446.91L1418 116.702H1446.91L1484.86 160H1522.45Z" stroke="#62A1E4" stroke-opacity="0.9"/>
<path d="M1915.43 160L1941.97 116.702H1910.33L1877.84 74H1839.89L1810.98 116.702H1839.89L1877.84 160H1915.43Z" stroke="#62A1E4" stroke-opacity="0.9"/>
<path d="M1522.45 672L1548.99 628.702H1517.35L1484.86 586H1446.91L1418 628.702H1446.91L1484.86 672H1522.45Z" stroke="#62A1E4" stroke-opacity="0.9"/>
<path d="M1915.43 672L1941.97 628.702H1910.33L1877.84 586H1839.89L1810.98 628.702H1839.89L1877.84 672H1915.43Z" stroke="#62A1E4" stroke-opacity="0.9"/>
<path d="M1653.44 246L1679.98 202.702H1648.34L1615.85 160H1577.91L1548.99 202.702H1577.91L1615.85 246H1653.44Z" stroke="#62A1E4" stroke-opacity="0.9"/>
<path d="M1653.44 758L1679.98 714.702H1648.34L1615.85 672H1577.91L1548.99 714.702H1577.91L1615.85 758H1653.44Z" stroke="#62A1E4" stroke-opacity="0.9"/>
<path d="M1784.43 246L1810.98 202.702H1779.33L1746.85 160H1708.9L1679.98 202.702H1708.9L1746.85 246H1784.43Z" stroke="#62A1E4" stroke-opacity="0.9"/>
<path d="M1784.43 758L1810.98 714.702H1779.33L1746.85 672H1708.9L1679.98 714.702H1708.9L1746.85 758H1784.43Z" stroke="#62A1E4" stroke-opacity="0.9"/>
<path d="M1522.45 246L1548.99 202.702H1517.35L1484.86 160H1446.91L1418 202.702H1446.91L1484.86 246H1522.45Z" stroke="#62A1E4" stroke-opacity="0.9"/>
<path d="M1915.43 246L1941.97 202.702H1910.33L1877.84 160H1839.89L1810.98 202.702H1839.89L1877.84 246H1915.43Z" stroke="#62A1E4" stroke-opacity="0.9"/>
<path d="M1522.45 758L1548.99 714.702H1517.35L1484.86 672H1446.91L1418 714.702H1446.91L1484.86 758H1522.45Z" stroke="#62A1E4" stroke-opacity="0.9"/>
<path d="M1915.43 758L1941.97 714.702H1910.33L1877.84 672H1839.89L1810.98 714.702H1839.89L1877.84 758H1915.43Z" stroke="#62A1E4" stroke-opacity="0.9"/>
<path d="M1653.44 330L1679.98 286.702H1648.34L1615.85 244H1577.91L1548.99 286.702H1577.91L1615.85 330H1653.44Z" stroke="#62A1E4" stroke-opacity="0.9"/>
<path d="M1653.44 842L1679.98 798.702H1648.34L1615.85 756H1577.91L1548.99 798.702H1577.91L1615.85 842H1653.44Z" stroke="#62A1E4" stroke-opacity="0.9"/>
<path d="M1784.43 330L1810.98 286.702H1779.33L1746.85 244H1708.9L1679.98 286.702H1708.9L1746.85 330H1784.43Z" stroke="#62A1E4" stroke-opacity="0.9"/>
<path d="M1784.43 842L1810.98 798.702H1779.33L1746.85 756H1708.9L1679.98 798.702H1708.9L1746.85 842H1784.43Z" stroke="#62A1E4" stroke-opacity="0.9"/>
<path d="M1522.45 330L1548.99 286.702H1517.35L1484.86 244H1446.91L1418 286.702H1446.91L1484.86 330H1522.45Z" stroke="#62A1E4" stroke-opacity="0.9"/>
<path d="M1915.43 330L1941.97 286.702H1910.33L1877.84 244H1839.89L1810.98 286.702H1839.89L1877.84 330H1915.43Z" stroke="#62A1E4" stroke-opacity="0.9"/>
<path d="M1522.45 842L1548.99 798.702H1517.35L1484.86 756H1446.91L1418 798.702H1446.91L1484.86 842H1522.45Z" stroke="#62A1E4" stroke-opacity="0.9"/>
<path d="M1915.43 842L1941.97 798.702H1910.33L1877.84 756H1839.89L1810.98 798.702H1839.89L1877.84 842H1915.43Z" stroke="#62A1E4" stroke-opacity="0.9"/>
<path d="M84.4485 1100L110.992 1056.7H79.3486L46.8615 1014H8.91309L-20 1056.7H8.91309L46.8615 1100H84.4485Z" stroke="#62A1E4" stroke-opacity="0.9"/>
<path d="M215.441 1100L241.985 1056.7H210.341L177.854 1014H139.905L110.992 1056.7H139.905L177.854 1100H215.441Z" stroke="#62A1E4" stroke-opacity="0.9"/>
<path d="M1524.25 1100L1551 1057.21H1519.11L1486.38 1015H1448.14L1419 1057.21H1448.14L1486.38 1100H1524.25Z" stroke="#62A1E4" stroke-opacity="0.9"/>
<path d="M1653.86 1100L1680 1057.21H1648.84L1616.84 1015H1579.47L1551 1057.21H1579.47L1616.84 1100H1653.86Z" stroke="#62A1E4" stroke-opacity="0.9"/>
<path d="M1784.45 1100L1811 1057.21H1779.35L1746.87 1015H1708.91L1680 1057.21H1708.91L1746.87 1100H1784.45Z" stroke="#62A1E4" stroke-opacity="0.9"/>
<path d="M1915.45 1100L1942 1057.21H1910.35L1877.87 1015H1839.91L1811 1057.21H1839.91L1877.87 1100H1915.45Z" stroke="#62A1E4" stroke-opacity="0.9"/>
<path d="M346.455 1100L373 1057.21H341.354L308.865 1015H270.915L242 1057.21H270.915L308.865 1100H346.455Z" stroke="#62A1E4" stroke-opacity="0.9"/>
<path d="M477.455 1100L504 1057.21H472.354L439.865 1015H401.915L373 1057.21H401.915L439.865 1100H477.455Z" stroke="#62A1E4" stroke-opacity="0.9"/>
<path d="M606.86 1100L633 1057.21H601.838L569.845 1015H532.473L504 1057.21H532.473L569.845 1100H606.86Z" stroke="#62A1E4" stroke-opacity="0.9"/>
<path d="M738.252 1100L765 1057.21H733.113L700.376 1015H662.135L633 1057.21H662.135L700.376 1100H738.252Z" stroke="#62A1E4" stroke-opacity="0.9"/>
<path d="M1130.66 1100L1157 1057.21H1125.6L1093.35 1015H1055.69L1027 1057.21H1055.69L1093.35 1100H1130.66Z" stroke="#62A1E4" stroke-opacity="0.9"/>
<path d="M869.455 1100L896 1057.21H864.354L831.865 1015H793.915L765 1057.21H793.915L831.865 1100H869.455Z" stroke="#62A1E4" stroke-opacity="0.9"/>
<path d="M1261.45 1100L1288 1057.21H1256.35L1223.87 1015H1185.91L1157 1057.21H1185.91L1223.87 1100H1261.45Z" stroke="#62A1E4" stroke-opacity="0.9"/>
<path d="M1000.45 1100L1027 1057.21H995.354L962.865 1015H924.915L896 1057.21H924.915L962.865 1100H1000.45Z" stroke="#62A1E4" stroke-opacity="0.9"/>
<path d="M1392.45 1100L1419 1057.21H1387.35L1354.87 1015H1316.91L1288 1057.21H1316.91L1354.87 1100H1392.45Z" stroke="#62A1E4" stroke-opacity="0.9"/>
</g>
<defs>
<filter id="filter0_f" x="-54.9424" y="-42.5" width="2029.84" height="1175" filterUnits="userSpaceOnUse" color-interpolation-filters="sRGB">
<feFlood flood-opacity="0" result="BackgroundImageFix"/>
<feBlend mode="normal" in="SourceGraphic" in2="BackgroundImageFix" result="shape"/>
<feGaussianBlur stdDeviation="16" result="effect1_foregroundBlur"/>
</filter>
</defs>
</svg>
