<svg width="37" height="37" viewBox="0 0 37 37" fill="none" xmlns="http://www.w3.org/2000/svg">
<path d="M29.6275 16.0788C29.6635 15.8823 29.6823 15.6831 29.6838 15.4834C29.699 15.0245 29.6206 14.5672 29.4531 14.1388C29.2855 13.7104 29.0324 13.3196 28.7086 12.9896C28.3848 12.6596 27.997 12.3972 27.5683 12.218C27.1396 12.0388 26.6787 11.9465 26.2131 11.9465C25.7475 11.9465 25.2866 12.0388 24.8579 12.218C24.4292 12.3972 24.0415 12.6596 23.7177 12.9896C23.3939 13.3196 23.1407 13.7104 22.9732 14.1388C22.8056 14.5672 22.7272 15.0245 22.7425 15.4834C22.744 15.6831 22.7628 15.8823 22.7987 16.0788C22.3788 16.409 22.0377 16.8264 21.7999 17.3013C21.562 17.7762 21.4332 18.297 21.4225 18.8265C21.4225 20.72 23.065 22.3027 25.2438 22.6689V26.8884H19.7838V7.67676C19.7842 7.58775 19.7668 7.49953 19.7325 7.4172C19.6982 7.33487 19.6477 7.26007 19.5839 7.19713C19.52 7.13419 19.4442 7.08436 19.3607 7.05053C19.2772 7.01669 19.1878 6.99952 19.0975 7.00001H9.505C9.41474 6.99952 9.32528 7.01669 9.2418 7.05053C9.15831 7.08436 9.08246 7.13419 9.01864 7.19713C8.95482 7.26007 8.90429 7.33487 8.86997 7.4172C8.83566 7.49953 8.81825 7.58775 8.81875 7.67676V26.9069H7V29H29.2675V26.8884H27.1787V22.6689C29.3612 22.3027 31 20.72 31 18.8265C30.9893 18.2974 30.8608 17.777 30.6236 17.3022C30.3864 16.8274 30.0464 16.4097 29.6275 16.0788ZM15.295 10.0657C15.295 9.95883 15.3381 9.8563 15.4147 9.7807C15.4914 9.70511 15.5953 9.66264 15.7037 9.66264H17.3162C17.4247 9.66264 17.5286 9.70511 17.6053 9.7807C17.6819 9.8563 17.725 9.95883 17.725 10.0657V11.6559C17.727 11.7101 17.7179 11.7641 17.6983 11.8147C17.6787 11.8653 17.6489 11.9115 17.6107 11.9506C17.5726 11.9896 17.5268 12.0206 17.4762 12.0418C17.4256 12.0629 17.3712 12.0738 17.3162 12.0738H15.7037C15.5953 12.0738 15.4914 12.0313 15.4147 11.9557C15.3381 11.8801 15.295 11.7776 15.295 11.6707V10.0657ZM15.295 14.0116C15.295 13.9047 15.3381 13.8022 15.4147 13.7266C15.4914 13.651 15.5953 13.6085 15.7037 13.6085H17.3162C17.4247 13.6085 17.5286 13.651 17.6053 13.7266C17.6819 13.8022 17.725 13.9047 17.725 14.0116V15.6018C17.725 15.7087 17.6819 15.8112 17.6053 15.8868C17.5286 15.9624 17.4247 16.0049 17.3162 16.0049H15.7037C15.5953 16.0049 15.4914 15.9624 15.4147 15.8868C15.3381 15.8112 15.295 15.7087 15.295 15.6018V14.0116ZM15.295 17.9575C15.2945 17.9042 15.3047 17.8514 15.325 17.8021C15.3454 17.7528 15.3754 17.7079 15.4134 17.6701C15.4514 17.6322 15.4966 17.6022 15.5465 17.5817C15.5963 17.5612 15.6498 17.5507 15.7037 17.5507H17.3162C17.3702 17.5507 17.4237 17.5612 17.4735 17.5817C17.5234 17.6022 17.5686 17.6322 17.6066 17.6701C17.6446 17.7079 17.6746 17.7528 17.695 17.8021C17.7153 17.8514 17.7255 17.9042 17.725 17.9575V19.544C17.7255 19.5972 17.7153 19.65 17.695 19.6994C17.6746 19.7487 17.6446 19.7936 17.6066 19.8314C17.5686 19.8692 17.5234 19.8992 17.4735 19.9197C17.4237 19.9402 17.3702 19.9508 17.3162 19.9508H15.7037C15.6498 19.9508 15.5963 19.9402 15.5465 19.9197C15.4966 19.8992 15.4514 19.8692 15.4134 19.8314C15.3754 19.7936 15.3454 19.7487 15.325 19.6994C15.3047 19.65 15.2945 19.5972 15.295 19.544V17.9575ZM15.295 21.8997C15.295 21.7927 15.3381 21.6902 15.4147 21.6146C15.4914 21.539 15.5953 21.4966 15.7037 21.4966H17.3162C17.4247 21.4966 17.5286 21.539 17.6053 21.6146C17.6819 21.6902 17.725 21.7927 17.725 21.8997V23.4898C17.727 23.544 17.7179 23.598 17.6983 23.6486C17.6787 23.6993 17.6489 23.7455 17.6107 23.7845C17.5726 23.8235 17.5268 23.8545 17.4762 23.8757C17.4256 23.8969 17.3712 23.9078 17.3162 23.9077H15.7037C15.5953 23.9077 15.4914 23.8653 15.4147 23.7897C15.3381 23.7141 15.295 23.6115 15.295 23.5046V21.8997ZM10.8775 10.0657C10.8775 9.95883 10.9206 9.8563 10.9972 9.7807C11.0739 9.70511 11.1778 9.66264 11.2863 9.66264H12.8987C12.9524 9.66264 13.0056 9.67307 13.0552 9.69332C13.1048 9.71358 13.1498 9.74327 13.1878 9.7807C13.2257 9.81814 13.2558 9.86257 13.2764 9.91148C13.2969 9.96038 13.3075 10.0128 13.3075 10.0657V11.6559C13.3095 11.7101 13.3004 11.7641 13.2808 11.8147C13.2612 11.8653 13.2314 11.9115 13.1932 11.9506C13.1551 11.9896 13.1093 12.0206 13.0587 12.0418C13.0081 12.0629 12.9537 12.0738 12.8987 12.0738H11.2863C11.1778 12.0738 11.0739 12.0313 10.9972 11.9557C10.9206 11.8801 10.8775 11.7776 10.8775 11.6707V10.0657ZM10.8775 14.0116C10.8775 13.9587 10.8881 13.9063 10.9086 13.8573C10.9292 13.8084 10.9593 13.764 10.9972 13.7266C11.0352 13.6891 11.0802 13.6595 11.1298 13.6392C11.1794 13.6189 11.2326 13.6085 11.2863 13.6085H12.8987C12.9524 13.6085 13.0056 13.6189 13.0552 13.6392C13.1048 13.6595 13.1498 13.6891 13.1878 13.7266C13.2257 13.764 13.2558 13.8084 13.2764 13.8573C13.2969 13.9063 13.3075 13.9587 13.3075 14.0116V15.6018C13.3075 15.6547 13.2969 15.7071 13.2764 15.756C13.2558 15.805 13.2257 15.8494 13.1878 15.8868C13.1498 15.9242 13.1048 15.9539 13.0552 15.9742C13.0056 15.9945 12.9524 16.0049 12.8987 16.0049H11.2863C11.1778 16.0049 11.0739 15.9624 10.9972 15.8868C10.9206 15.8112 10.8775 15.7087 10.8775 15.6018V14.0116ZM10.8775 17.9575C10.877 17.9042 10.8872 17.8514 10.9075 17.8021C10.9279 17.7528 10.9579 17.7079 10.9959 17.6701C11.0339 17.6322 11.0791 17.6022 11.129 17.5817C11.1788 17.5612 11.2323 17.5507 11.2863 17.5507H12.8987C12.9527 17.5507 13.0062 17.5612 13.056 17.5817C13.1059 17.6022 13.1511 17.6322 13.1891 17.6701C13.2271 17.7079 13.2571 17.7528 13.2775 17.8021C13.2978 17.8514 13.308 17.9042 13.3075 17.9575V19.544C13.308 19.5972 13.2978 19.65 13.2775 19.6994C13.2571 19.7487 13.2271 19.7936 13.1891 19.8314C13.1511 19.8692 13.1059 19.8992 13.056 19.9197C13.0062 19.9402 12.9527 19.9508 12.8987 19.9508H11.2863C11.2323 19.9508 11.1788 19.9402 11.129 19.9197C11.0791 19.8992 11.0339 19.8692 10.9959 19.8314C10.9579 19.7936 10.9279 19.7487 10.9075 19.6994C10.8872 19.65 10.877 19.5972 10.8775 19.544V17.9575ZM10.8775 21.8997C10.8775 21.7927 10.9206 21.6902 10.9972 21.6146C11.0739 21.539 11.1778 21.4966 11.2863 21.4966H12.8987C12.9524 21.4966 13.0056 21.507 13.0552 21.5272C13.1048 21.5475 13.1498 21.5772 13.1878 21.6146C13.2257 21.6521 13.2558 21.6965 13.2764 21.7454C13.2969 21.7943 13.3075 21.8467 13.3075 21.8997V23.4898C13.3095 23.544 13.3004 23.598 13.2808 23.6486C13.2612 23.6993 13.2314 23.7455 13.1932 23.7845C13.1551 23.8235 13.1093 23.8545 13.0587 23.8757C13.0081 23.8969 12.9537 23.9078 12.8987 23.9077H11.2863C11.1778 23.9077 11.0739 23.8653 10.9972 23.7897C10.9206 23.7141 10.8775 23.6115 10.8775 23.5046V21.8997Z" fill="#0D0106"/>
</svg>
