<svg width="984" height="713" viewBox="0 0 984 713" fill="none" xmlns="http://www.w3.org/2000/svg">
<g clip-path="url(#clip0)">
<ellipse cx="383" cy="545" rx="152" ry="59" fill="#1B1820"/>
<rect x="61" y="109" width="652" height="413" rx="37" fill="#1B1820"/>
<rect x="61" y="109" width="652" height="413" rx="37" fill="#1B1820"/>
<rect x="73" y="125" width="628" height="381" rx="37" fill="white"/>
<path d="M204.5 423C258.9 423 303 379.795 303 326.5C303 273.205 258.9 230 204.5 230C150.1 230 106 273.205 106 326.5C106 379.795 150.1 423 204.5 423Z" fill="#3626A7"/>
<path d="M634.003 278.631H361.585C360.247 278.63 358.965 278.228 358.019 277.514C357.074 276.801 356.542 275.833 356.54 274.823V223.808C356.542 222.799 357.074 221.831 358.02 221.117C358.965 220.403 360.247 220.001 361.585 220H634.003C635.341 220.001 636.623 220.403 637.569 221.117C638.514 221.831 639.046 222.799 639.048 223.808V274.824C639.046 275.833 638.514 276.801 637.569 277.515C636.623 278.229 635.341 278.631 634.003 278.632V278.631ZM361.585 221.523C360.782 221.523 360.012 221.764 359.445 222.193C358.877 222.621 358.558 223.202 358.558 223.808V274.824C358.558 275.43 358.877 276.011 359.445 276.439C360.012 276.868 360.782 277.109 361.585 277.109H634.003C634.806 277.109 635.576 276.868 636.143 276.439C636.711 276.011 637.03 275.43 637.031 274.824V223.808C637.03 223.202 636.711 222.621 636.143 222.193C635.576 221.764 634.806 221.523 634.003 221.523H361.585Z" fill="#E6E6E6"/>
<path d="M442.047 235.365C441.111 235.365 440.212 235.646 439.55 236.146C438.888 236.646 438.516 237.324 438.516 238.031C438.516 238.738 438.888 239.417 439.55 239.917C440.212 240.417 441.111 240.697 442.047 240.697H608.524C609.46 240.724 610.372 240.47 611.06 239.989C611.747 239.509 612.153 238.842 612.189 238.135C612.225 237.428 611.887 236.74 611.251 236.221C610.614 235.702 609.731 235.395 608.795 235.368C608.743 235.367 608.691 235.366 608.639 235.366H442.047L442.047 235.365Z" fill="#E6E6E6"/>
<path d="M442.047 251.359C441.111 251.359 440.212 251.64 439.55 252.14C438.888 252.64 438.516 253.318 438.516 254.025C438.516 254.732 438.888 255.41 439.55 255.91C440.212 256.41 441.111 256.691 442.047 256.691H608.524C609.46 256.718 610.372 256.463 611.06 255.983C611.747 255.502 612.153 254.835 612.189 254.129C612.225 253.422 611.887 252.733 611.251 252.214C610.614 251.696 609.731 251.389 608.795 251.362C608.743 251.36 608.691 251.36 608.639 251.36H442.047L442.047 251.359Z" fill="#E6E6E6"/>
<path d="M558.339 364H360.66C359.69 363.999 358.759 363.595 358.073 362.876C357.387 362.158 357.001 361.184 357 360.168V308.832C357.001 307.816 357.387 306.842 358.074 306.124C358.76 305.406 359.69 305.001 360.66 305H558.339C559.31 305.001 560.24 305.406 560.926 306.124C561.613 306.842 561.999 307.816 562 308.832V360.169C561.998 361.185 561.612 362.158 560.926 362.876C560.24 363.595 559.31 363.999 558.339 364V364ZM360.66 306.532C360.078 306.533 359.52 306.775 359.108 307.207C358.696 307.638 358.464 308.222 358.464 308.832V360.169C358.464 360.779 358.696 361.363 359.108 361.794C359.52 362.226 360.078 362.468 360.66 362.469H558.339C558.922 362.468 559.48 362.226 559.892 361.794C560.304 361.363 560.536 360.779 560.536 360.169V308.832C560.536 308.222 560.304 307.638 559.892 307.207C559.48 306.775 558.922 306.533 558.339 306.532H360.66Z" fill="#E6E6E6"/>
<path d="M441.096 321C440.54 321 440.007 321.263 439.614 321.732C439.221 322.201 439 322.837 439 323.5C439 324.163 439.221 324.799 439.614 325.268C440.007 325.737 440.54 326 441.096 326H539.915C540.463 325.996 540.988 325.737 541.378 325.277C541.768 324.817 541.991 324.194 542 323.54C542.009 322.887 541.803 322.255 541.426 321.78C541.049 321.306 540.531 321.026 539.984 321.001H441.096V321Z" fill="#E6E6E6"/>
<path d="M441.096 337C440.54 337 440.007 337.263 439.614 337.732C439.221 338.201 439 338.837 439 339.5C439 340.163 439.221 340.799 439.614 341.268C440.007 341.737 440.54 342 441.096 342H539.915C540.463 341.996 540.988 341.737 541.378 341.277C541.768 340.817 541.991 340.194 542 339.54C542.009 338.887 541.803 338.255 541.426 337.78C541.049 337.306 540.531 337.026 539.984 337.001H441.096V337Z" fill="#E6E6E6"/>
<path d="M558.339 448.999H360.66C359.69 448.998 358.759 448.594 358.073 447.875C357.387 447.157 357.001 446.183 357 445.167V393.832C357.001 392.816 357.387 391.842 358.074 391.124C358.76 390.406 359.69 390.001 360.66 390H558.339C559.31 390.001 560.24 390.406 560.926 391.124C561.613 391.842 561.999 392.816 562 393.832V445.168C561.999 446.184 561.613 447.158 560.926 447.876C560.24 448.594 559.31 448.999 558.339 449V448.999ZM360.66 391.532C360.078 391.533 359.52 391.775 359.108 392.207C358.696 392.638 358.464 393.222 358.464 393.832V445.168C358.464 445.778 358.696 446.362 359.108 446.793C359.52 447.225 360.078 447.467 360.66 447.468H558.339C558.922 447.467 559.48 447.225 559.892 446.793C560.304 446.362 560.536 445.778 560.536 445.168V393.832C560.536 393.222 560.304 392.638 559.892 392.207C559.48 391.775 558.922 391.533 558.339 391.532H360.66Z" fill="#E6E6E6"/>
<path d="M441.094 406C440.539 406 440.006 406.263 439.613 406.732C439.221 407.201 439 407.836 439 408.499C439 409.162 439.221 409.798 439.613 410.266C440.006 410.735 440.539 410.998 441.094 410.998H539.825C540.1 411.011 540.374 410.959 540.632 410.845C540.89 410.731 541.127 410.557 541.329 410.334C541.53 410.111 541.693 409.843 541.808 409.545C541.923 409.246 541.988 408.924 541.998 408.596C542.009 408.268 541.965 407.941 541.87 407.633C541.774 407.325 541.629 407.043 541.442 406.802C541.255 406.561 541.03 406.367 540.78 406.229C540.53 406.092 540.26 406.015 539.985 406.003C539.955 406.001 539.924 406.001 539.893 406.001H441.094L441.094 406Z" fill="#E6E6E6"/>
<path d="M441.094 422C440.539 422 440.006 422.263 439.613 422.732C439.221 423.201 439 423.836 439 424.499C439 425.162 439.221 425.798 439.613 426.266C440.006 426.735 440.539 426.998 441.094 426.998H539.825C540.1 427.011 540.374 426.959 540.632 426.845C540.89 426.731 541.127 426.557 541.329 426.334C541.53 426.111 541.693 425.843 541.808 425.545C541.923 425.246 541.988 424.924 541.998 424.596C542.009 424.268 541.965 423.941 541.87 423.633C541.774 423.325 541.629 423.043 541.442 422.802C541.255 422.561 541.03 422.367 540.78 422.229C540.53 422.092 540.26 422.015 539.985 422.003C539.955 422.001 539.924 422.001 539.893 422.001H441.094L441.094 422Z" fill="#E6E6E6"/>
<path d="M928.431 713.148H-50.4314C-51.8509 713.148 -53 712.68 -53 712.103C-53 711.525 -51.8496 711.057 -50.4314 711.057H928.431C929.85 711.057 931 711.525 931 712.103C931 712.68 929.851 713.148 928.431 713.148Z" fill="#E6E6E6"/>
<path d="M886.975 672.359C882.793 673.469 878.303 673.747 873.937 673.166C869.572 672.585 865.478 671.166 862.05 669.044C853.319 663.512 850.583 654.399 848.356 645.96L841.769 621L855.559 628.169C865.477 633.324 875.618 638.646 882.486 646.113C889.354 653.581 892.351 663.775 886.834 671.854" fill="#57B894"/>
<path d="M884.846 704.315C886.582 694.767 888.367 685.097 887.149 675.449C886.068 666.878 882.604 658.508 875.553 651.645C871.811 648.01 867.257 644.894 862.096 642.44C860.751 641.799 859.512 643.408 860.852 644.047C869.781 648.307 876.687 654.599 880.575 662.014C884.869 670.26 885.559 679.248 884.816 688.006C884.368 693.303 883.421 698.565 882.465 703.821C882.39 704.058 882.437 704.309 882.597 704.521C882.757 704.734 883.018 704.892 883.327 704.965C883.642 705.029 883.978 704.997 884.262 704.875C884.545 704.753 884.754 704.552 884.843 704.315H884.846Z" fill="#F2F2F2"/>
<path d="M872.351 688.996C870.557 691.054 868.092 692.728 865.192 693.858C862.293 694.988 859.056 695.535 855.795 695.447C847.415 695.146 840.427 690.731 834.138 686.541L815.536 674.139L827.848 673.695C836.702 673.374 845.785 673.076 854.224 675.137C862.662 677.199 870.434 682.16 871.976 688.746" fill="#57B894"/>
<path d="M889.751 709.803C881.401 698.64 871.702 686.234 854.383 682.269C849.567 681.17 844.518 680.776 839.506 681.109C837.926 681.209 838.321 683.05 839.904 682.947C848.304 682.421 856.688 684.095 863.644 687.689C870.339 691.129 875.551 695.911 879.961 700.983C882.664 704.085 885.084 707.328 887.504 710.562C888.273 711.594 890.534 710.849 889.751 709.803Z" fill="#F2F2F2"/>
<path d="M576.439 674.359C572.257 675.469 567.767 675.747 563.401 675.166C559.036 674.585 554.942 673.166 551.514 671.044C542.783 665.513 540.046 656.399 537.82 647.96L531.232 623L545.023 630.169C554.941 635.324 565.082 640.646 571.95 648.113C578.818 655.581 581.815 665.775 576.297 673.855" fill="#57B894"/>
<path d="M578.112 704.59C578.431 694.91 578.779 685.104 576.347 675.697C574.187 667.342 569.848 659.486 562.389 653.576C558.431 650.447 553.792 647.935 548.68 646.155C547.347 645.689 546.417 647.441 547.744 647.904C556.591 650.998 563.839 656.359 568.442 663.215C573.534 670.843 575.387 679.662 575.882 688.434C576.183 693.739 576.016 699.073 575.841 704.401C575.803 704.646 575.88 704.888 576.057 705.078C576.234 705.268 576.497 705.393 576.793 705.426C577.094 705.45 577.401 705.375 577.647 705.219C577.894 705.062 578.06 704.836 578.11 704.59L578.112 704.59Z" fill="#F2F2F2"/>
<path d="M561.815 690.996C560.021 693.054 557.556 694.728 554.656 695.858C551.756 696.988 548.52 697.535 545.259 697.447C536.879 697.147 529.891 692.731 523.602 688.541L505 676.139L517.312 675.695C526.165 675.374 535.248 675.076 543.687 677.138C552.126 679.199 559.898 684.16 561.44 690.746" fill="#57B894"/>
<path d="M588.008 668.124C587.545 665.433 587.805 662.464 588.761 659.502C589.717 656.541 591.337 653.687 593.466 651.214C598.992 644.908 606.83 642.28 614.05 640.052L635.416 633.466L627.983 643.291C622.638 650.357 617.131 657.586 610.202 662.826C603.273 668.065 594.518 670.956 588.439 667.991" fill="#57B894"/>
<path d="M579.214 711.803C570.864 700.64 561.165 688.234 543.846 684.269C539.031 683.17 533.981 682.776 528.97 683.109C527.39 683.209 527.785 685.05 529.367 684.947C537.768 684.421 546.152 686.095 553.108 689.689C559.803 693.129 565.014 697.911 569.425 702.983C572.128 706.085 574.548 709.328 576.968 712.562C577.737 713.594 579.998 712.849 579.214 711.803Z" fill="#F2F2F2"/>
<path d="M602.499 652.313C591.195 662.854 578.676 675.039 576.197 694.902C575.512 700.424 575.622 706.136 576.522 711.729C576.801 713.493 578.77 712.858 578.488 711.091C577.014 701.712 577.946 692.122 581.128 683.936C584.171 676.059 588.838 669.708 593.908 664.226C597.009 660.868 600.293 657.812 603.568 654.757C604.614 653.786 603.558 651.325 602.499 652.313Z" fill="#F2F2F2"/>
<path d="M386.799 261.991C395.746 261.991 403 254.83 403 245.996C403 237.161 395.746 230 386.799 230C377.851 230 370.597 237.161 370.597 245.996C370.597 254.83 377.851 261.991 386.799 261.991Z" fill="#3626A7"/>
<path d="M379.043 243.008C378.856 243.008 378.705 244.202 378.705 245.673C378.705 247.145 378.856 248.34 379.043 248.34H394.973C395.16 248.364 395.314 247.19 395.317 245.718C395.42 244.802 395.306 243.874 394.984 243.009H379.043V243.008Z" fill="#E6E6E6"/>
<path d="M386.799 347.335C395.746 347.335 403 340.174 403 331.34C403 322.506 395.746 315.344 386.799 315.344C377.851 315.344 370.597 322.506 370.597 331.34C370.597 340.174 377.851 347.335 386.799 347.335Z" fill="#3626A7"/>
<path d="M379.043 328.352C378.856 328.352 378.705 329.546 378.705 331.018C378.705 332.489 378.856 333.684 379.043 333.684H394.973C395.16 333.708 395.314 332.534 395.317 331.063C395.42 330.146 395.306 329.218 394.984 328.353H379.043V328.352Z" fill="#E6E6E6"/>
<path d="M386.799 432.644C395.746 432.644 403 425.483 403 416.649C403 407.815 395.746 400.653 386.799 400.653C377.851 400.653 370.597 407.815 370.597 416.649C370.597 425.483 377.851 432.644 386.799 432.644Z" fill="#3626A7"/>
<path d="M379.043 413.661C378.856 413.661 378.705 414.855 378.705 416.327C378.705 417.799 378.856 418.993 379.043 418.993H394.973C395.16 419.017 395.314 417.844 395.317 416.372C395.42 415.455 395.306 414.528 394.984 413.662H379.043V413.661Z" fill="#E6E6E6"/>
<path d="M180.4 299L174 304.66L227.6 352.065L234 346.405L180.4 299Z" fill="white"/>
<path d="M234 304.66L227.6 299L174 346.405L180.4 352.065L234 304.66Z" fill="white"/>
<path d="M680.034 450.753C681.871 450.262 683.543 449.473 684.932 448.442C686.322 447.41 687.395 446.161 688.075 444.783C688.756 443.405 689.028 441.931 688.873 440.464C688.717 438.998 688.138 437.576 687.175 436.297L718.409 409.417L694.027 406.877L668.106 432.792C665.367 434.156 663.386 436.23 662.537 438.622C661.689 441.014 662.033 443.559 663.503 445.772C664.973 447.986 667.468 449.716 670.515 450.634C673.562 451.552 676.949 451.594 680.034 450.753V450.753Z" fill="#9F616A"/>
<path d="M717.702 688.975L695.919 688.974L685.556 625.542L717.706 625.543L717.702 688.975Z" fill="#9F616A"/>
<path d="M723.257 704.917L653.018 704.915V704.244C653.019 698.77 655.899 693.521 661.026 689.65C666.153 685.78 673.107 683.605 680.357 683.605H680.359L723.259 683.606L723.257 704.917Z" fill="#201F29"/>
<path d="M808.604 678.017L787.801 682.893L752.988 624.634L783.692 617.438L808.604 678.017Z" fill="#9F616A"/>
<path d="M816.573 693.352L749.493 709.075L749.229 708.434C747.08 703.207 747.769 697.549 751.145 692.704C754.521 687.86 760.307 684.227 767.231 682.603L767.233 682.603L808.204 673L816.573 693.352Z" fill="#201F29"/>
<path d="M701.02 396.528L668.759 424.422L694.015 426.138L701.02 396.528Z" fill="#E6E6E6"/>
<path d="M695.264 432.811C695.264 432.811 687.174 437.03 686.162 456.018C685.151 475.006 689.196 524.589 689.196 524.589C689.196 524.589 685.152 546.741 689.196 566.783C693.241 586.825 685.152 659.608 690.208 659.608C695.264 659.608 721.556 662.773 722.568 659.608C723.579 656.443 724.59 608.975 724.59 608.975C724.59 608.975 732.681 584.712 724.59 569.948C724.59 569.948 752.837 621.4 771.108 660.666C775.106 669.26 805.49 659.611 800.434 650.117C795.378 640.623 783.243 597.373 783.243 597.373C783.243 597.373 774.142 565.727 757.962 552.014L766.053 484.502C766.053 484.502 783.244 439.143 773.133 432.814C763.022 426.485 695.264 432.811 695.264 432.811Z" fill="#201F29"/>
<path d="M724.5 260C741.345 260 755 247.688 755 232.5C755 217.312 741.345 205 724.5 205C707.655 205 694 217.312 694 232.5C694 247.688 707.655 260 724.5 260Z" fill="#A0616A"/>
<path d="M756.399 262L718.6 282.154C718.6 282.154 704.127 289.547 698.72 302.308C692.958 315.908 696.307 335.057 698.72 339.435C703.398 347.921 696.759 369.136 696.759 369.136L690.912 417.931C690.912 417.931 669.863 435.963 686.235 438.085C702.607 440.207 731.842 437.024 749.383 438.085C766.925 439.146 786.805 441.268 780.958 430.658C775.111 420.048 768.095 412.624 775.111 391.413C780.602 374.812 780.364 312.741 780.001 286.527C779.951 282.927 778.886 279.399 776.909 276.278C774.931 273.156 772.106 270.546 768.702 268.695L756.399 262Z" fill="white"/>
<path opacity="0.1" d="M761.429 295L765.631 359.507L724.907 421.767L718 419.783L760.023 361.621L761.429 295Z" fill="black"/>
<path opacity="0.1" d="M236.568 379.446V372.042L188.948 431.263L236.568 379.446Z" fill="black"/>
<path d="M702.912 207.149L697.8 205.331C697.8 205.331 708.499 194.866 723.379 195.776L719.193 191.681C719.193 191.681 729.425 188.041 738.727 197.595C743.617 202.618 749.274 208.523 752.804 215.173H758.283L755.997 219.648L764 224.122L755.786 223.322C756.564 227.184 756.297 231.156 755.008 234.91L755.234 238.447C755.234 238.447 745.707 225.347 745.707 223.53V228.08C745.707 228.08 740.591 223.985 740.591 221.255L737.8 224.441L736.405 219.437L719.197 224.441L721.985 220.343L711.286 221.708L715.472 216.704C715.472 216.704 703.38 222.619 702.915 227.625C702.45 232.631 696.405 239 696.405 239L693.614 234.449C693.614 234.449 689.429 213.974 702.912 207.149Z" fill="#201F29"/>
<path d="M738.118 459.822C739.81 459.093 741.27 458.092 742.394 456.891C743.519 455.69 744.281 454.317 744.627 452.87C744.973 451.422 744.895 449.935 744.397 448.513C743.899 447.09 742.994 445.768 741.746 444.638L766.164 414L741.572 414.768L722.155 443.745C719.781 445.454 718.319 447.761 718.046 450.229C717.774 452.697 718.71 455.154 720.678 457.136C722.645 459.118 725.507 460.485 728.722 460.98C731.936 461.476 735.279 461.063 738.118 459.822V459.822Z" fill="#9F616A"/>
<path d="M752.404 268.851L760.657 265.058C760.657 265.058 791.036 275.274 791.786 311.315C792.535 347.356 770.137 408.086 770.137 408.086C770.137 408.086 764.465 419.444 762.693 422.1C760.922 424.756 755.77 423.901 758.881 426.386C761.992 428.872 756.756 432.429 756.756 432.429C756.756 432.429 731.367 439.033 731.536 430.204C731.704 421.376 755.691 352.542 755.691 352.542L735.743 299.533C735.743 299.533 724.171 273.998 752.404 268.851Z" fill="white"/>
</g>
<defs>
<clipPath id="clip0">
<rect width="984" height="713" fill="white"/>
</clipPath>
</defs>
</svg>
