<svg width="34" height="34" viewBox="0 0 34 34" fill="none" xmlns="http://www.w3.org/2000/svg">
<path fill-rule="evenodd" clip-rule="evenodd" d="M8.5 12.3536V21.9805C8.5 22.5055 8.88391 22.9288 9.41101 22.9288H24.4354C24.9625 22.9288 25.3464 22.4993 25.3464 21.9805V12.3536C25.3464 11.7788 25.004 11.3326 24.4354 11.3326H9.41101C8.82166 11.3326 8.5 11.7913 8.5 12.3536ZM9.88623 13.192C9.88623 12.9617 10.0253 12.8289 10.2494 12.8289C10.3884 12.8289 15.8483 16.2882 16.1782 16.4895L17.0332 17.0208C17.303 16.8402 17.5748 16.6846 17.8571 16.4978C18.4298 16.1305 23.5286 12.8289 23.6697 12.8289C23.8938 12.8289 24.0328 12.9617 24.0328 13.192C24.0328 13.439 23.5597 13.6818 23.2526 13.8706C21.3164 15.0514 19.3802 16.338 17.4628 17.5624C17.3507 17.6371 17.1349 17.7989 16.973 17.774C16.7904 17.7471 11.2351 14.1777 10.2245 13.5822C10.073 13.4929 9.88623 13.412 9.88623 13.192Z" fill="#0D0106"/>
</svg>
