<svg width="24" height="25" viewBox="0 0 24 25" fill="none" xmlns="http://www.w3.org/2000/svg">
<path d="M19.6596 16.5865C22.0596 16.5865 24 14.7596 24 12.5C24 10.2404 22.0596 8.41346 19.6596 8.41346C18.434 8.41346 17.3362 8.89423 16.5447 9.66346L8.50213 5.26442C8.62979 4.90385 8.68085 4.49519 8.68085 4.08654C8.68085 1.82692 6.74043 0 4.34043 0C1.94043 0 0 1.82692 0 4.08654C0 6.34615 1.94043 8.17308 4.34043 8.17308C5.56596 8.17308 6.66383 7.69231 7.45532 6.92308L15.4979 11.3462C15.3957 11.7067 15.3191 12.0913 15.3191 12.5C15.3191 12.9087 15.3957 13.2933 15.4979 13.6779L7.45532 18.0769C6.66383 17.3077 5.56596 16.8269 4.34043 16.8269C1.94043 16.8269 0 18.6538 0 20.9135C0 23.1731 1.94043 25 4.34043 25C6.74043 25 8.68085 23.1731 8.68085 20.9135C8.68085 20.5048 8.60425 20.1202 8.50213 19.7356L16.5447 15.3125C17.3362 16.1058 18.434 16.5865 19.6596 16.5865ZM19.6596 10.3365C20.9362 10.3365 21.9574 11.2981 21.9574 12.5C21.9574 13.7019 20.9362 14.6635 19.6596 14.6635C18.383 14.6635 17.3617 13.7019 17.3617 12.5C17.3617 11.2981 18.383 10.3365 19.6596 10.3365ZM4.34043 6.25C3.06383 6.25 2.04255 5.28846 2.04255 4.08654C2.04255 2.88462 3.06383 1.92308 4.34043 1.92308C5.61702 1.92308 6.6383 2.88462 6.6383 4.08654C6.6383 5.28846 5.61702 6.25 4.34043 6.25ZM4.34043 23.0769C3.06383 23.0769 2.04255 22.1154 2.04255 20.9135C2.04255 19.7115 3.06383 18.75 4.34043 18.75C5.61702 18.75 6.6383 19.7115 6.6383 20.9135C6.6383 22.1154 5.61702 23.0769 4.34043 23.0769Z" fill="#F0F5F9"/>
</svg>
