<svg width="24" height="22" viewBox="0 0 24 22" fill="none" xmlns="http://www.w3.org/2000/svg">
<path d="M22.6275 9.07884C22.6635 8.88233 22.6823 8.68313 22.6838 8.48345C22.699 8.02452 22.6206 7.56725 22.4531 7.13882C22.2855 6.7104 22.0324 6.31958 21.7086 5.9896C21.3848 5.65962 20.997 5.39723 20.5683 5.21803C20.1396 5.03884 19.6787 4.94649 19.2131 4.94649C18.7475 4.94649 18.2866 5.03884 17.8579 5.21803C17.4292 5.39723 17.0415 5.65962 16.7177 5.9896C16.3939 6.31958 16.1407 6.7104 15.9732 7.13882C15.8056 7.56725 15.7272 8.02452 15.7425 8.48345C15.744 8.68313 15.7628 8.88233 15.7987 9.07884C15.3788 9.40904 15.0377 9.82642 14.7999 10.3013C14.562 10.7762 14.4332 11.297 14.4225 11.8265C14.4225 13.72 16.065 15.3027 18.2438 15.6689V19.8884H12.7838V0.676762C12.7842 0.587753 12.7668 0.49953 12.7325 0.417201C12.6982 0.334872 12.6477 0.260073 12.5839 0.197133C12.52 0.134193 12.4442 0.084362 12.3607 0.0505257C12.2772 0.0166894 12.1878 -0.000480204 12.0975 1.02169e-05H2.505C2.41474 -0.000480204 2.32528 0.0166894 2.2418 0.0505257C2.15831 0.084362 2.08246 0.134193 2.01864 0.197133C1.95482 0.260073 1.90429 0.334872 1.86997 0.417201C1.83566 0.49953 1.81825 0.587753 1.81875 0.676762V19.9069H0V22H22.2675V19.8884H20.1787V15.6689C22.3612 15.3027 24 13.72 24 11.8265C23.9893 11.2974 23.8608 10.777 23.6236 10.3022C23.3864 9.82736 23.0464 9.40974 22.6275 9.07884ZM8.295 3.06573C8.295 2.95883 8.33807 2.8563 8.41472 2.7807C8.49138 2.70511 8.59534 2.66264 8.70375 2.66264H10.3162C10.4247 2.66264 10.5286 2.70511 10.6053 2.7807C10.6819 2.8563 10.725 2.95883 10.725 3.06573V4.65592C10.727 4.71008 10.7179 4.76409 10.6983 4.81472C10.6787 4.86535 10.6489 4.91155 10.6107 4.95056C10.5726 4.98957 10.5268 5.02059 10.4762 5.04177C10.4256 5.06294 10.3712 5.07384 10.3162 5.0738H8.70375C8.59534 5.0738 8.49138 5.03133 8.41472 4.95574C8.33807 4.88014 8.295 4.77762 8.295 4.67071V3.06573ZM8.295 7.01161C8.295 6.9047 8.33807 6.80217 8.41472 6.72658C8.49138 6.65098 8.59534 6.60851 8.70375 6.60851H10.3162C10.4247 6.60851 10.5286 6.65098 10.6053 6.72658C10.6819 6.80217 10.725 6.9047 10.725 7.01161V8.60179C10.725 8.7087 10.6819 8.81122 10.6053 8.88682C10.5286 8.96241 10.4247 9.00488 10.3162 9.00488H8.70375C8.59534 9.00488 8.49138 8.96241 8.41472 8.88682C8.33807 8.81122 8.295 8.7087 8.295 8.60179V7.01161ZM8.295 10.9575C8.2945 10.9042 8.30471 10.8514 8.32503 10.8021C8.34535 10.7528 8.37538 10.7079 8.41339 10.6701C8.45139 10.6322 8.49662 10.6022 8.54646 10.5817C8.5963 10.5612 8.64975 10.5507 8.70375 10.5507H10.3162C10.3702 10.5507 10.4237 10.5612 10.4735 10.5817C10.5234 10.6022 10.5686 10.6322 10.6066 10.6701C10.6446 10.7079 10.6746 10.7528 10.695 10.8021C10.7153 10.8514 10.7255 10.9042 10.725 10.9575V12.544C10.7255 12.5972 10.7153 12.65 10.695 12.6994C10.6746 12.7487 10.6446 12.7936 10.6066 12.8314C10.5686 12.8692 10.5234 12.8992 10.4735 12.9197C10.4237 12.9402 10.3702 12.9508 10.3162 12.9508H8.70375C8.64975 12.9508 8.5963 12.9402 8.54646 12.9197C8.49662 12.8992 8.45139 12.8692 8.41339 12.8314C8.37538 12.7936 8.34535 12.7487 8.32503 12.6994C8.30471 12.65 8.2945 12.5972 8.295 12.544V10.9575ZM8.295 14.8997C8.295 14.7927 8.33807 14.6902 8.41472 14.6146C8.49138 14.539 8.59534 14.4966 8.70375 14.4966H10.3162C10.4247 14.4966 10.5286 14.539 10.6053 14.6146C10.6819 14.6902 10.725 14.7927 10.725 14.8997V16.4898C10.727 16.544 10.7179 16.598 10.6983 16.6486C10.6787 16.6993 10.6489 16.7455 10.6107 16.7845C10.5726 16.8235 10.5268 16.8545 10.4762 16.8757C10.4256 16.8969 10.3712 16.9078 10.3162 16.9077H8.70375C8.59534 16.9077 8.49138 16.8653 8.41472 16.7897C8.33807 16.7141 8.295 16.6115 8.295 16.5046V14.8997ZM3.8775 3.06573C3.8775 2.95883 3.92056 2.8563 3.99722 2.7807C4.07388 2.70511 4.17784 2.66264 4.28625 2.66264H5.89875C5.95243 2.66264 6.00558 2.67307 6.05517 2.69332C6.10476 2.71358 6.14982 2.74327 6.18778 2.7807C6.22574 2.81814 6.25584 2.86257 6.27639 2.91148C6.29693 2.96038 6.3075 3.0128 6.3075 3.06573V4.65592C6.30952 4.71008 6.30044 4.76409 6.2808 4.81472C6.26116 4.86535 6.23137 4.91155 6.19321 4.95056C6.15506 4.98957 6.10931 5.02059 6.05872 5.04177C6.00812 5.06294 5.95371 5.07384 5.89875 5.0738H4.28625C4.17784 5.0738 4.07388 5.03133 3.99722 4.95574C3.92056 4.88014 3.8775 4.77762 3.8775 4.67071V3.06573ZM3.8775 7.01161C3.8775 6.95867 3.88807 6.90625 3.90861 6.85735C3.92916 6.80844 3.95926 6.76401 3.99722 6.72658C4.03518 6.68915 4.08024 6.65945 4.12983 6.6392C4.17942 6.61894 4.23257 6.60851 4.28625 6.60851H5.89875C5.95243 6.60851 6.00558 6.61894 6.05517 6.6392C6.10476 6.65945 6.14982 6.68915 6.18778 6.72658C6.22574 6.76401 6.25584 6.80844 6.27639 6.85735C6.29693 6.90625 6.3075 6.95867 6.3075 7.01161V8.60179C6.3075 8.65472 6.29693 8.70714 6.27639 8.75605C6.25584 8.80495 6.22574 8.84939 6.18778 8.88682C6.14982 8.92425 6.10476 8.95394 6.05517 8.9742C6.00558 8.99445 5.95243 9.00488 5.89875 9.00488H4.28625C4.17784 9.00488 4.07388 8.96241 3.99722 8.88682C3.92056 8.81122 3.8775 8.7087 3.8775 8.60179V7.01161ZM3.8775 10.9575C3.877 10.9042 3.88721 10.8514 3.90753 10.8021C3.92785 10.7528 3.95788 10.7079 3.99589 10.6701C4.03389 10.6322 4.07912 10.6022 4.12896 10.5817C4.17879 10.5612 4.23226 10.5507 4.28625 10.5507H5.89875C5.95274 10.5507 6.00621 10.5612 6.05604 10.5817C6.10588 10.6022 6.15111 10.6322 6.18911 10.6701C6.22712 10.7079 6.25715 10.7528 6.27747 10.8021C6.29779 10.8514 6.308 10.9042 6.3075 10.9575V12.544C6.308 12.5972 6.29779 12.65 6.27747 12.6994C6.25715 12.7487 6.22712 12.7936 6.18911 12.8314C6.15111 12.8692 6.10588 12.8992 6.05604 12.9197C6.00621 12.9402 5.95274 12.9508 5.89875 12.9508H4.28625C4.23226 12.9508 4.17879 12.9402 4.12896 12.9197C4.07912 12.8992 4.03389 12.8692 3.99589 12.8314C3.95788 12.7936 3.92785 12.7487 3.90753 12.6994C3.88721 12.65 3.877 12.5972 3.8775 12.544V10.9575ZM3.8775 14.8997C3.8775 14.7927 3.92056 14.6902 3.99722 14.6146C4.07388 14.539 4.17784 14.4966 4.28625 14.4966H5.89875C5.95243 14.4966 6.00558 14.507 6.05517 14.5272C6.10476 14.5475 6.14982 14.5772 6.18778 14.6146C6.22574 14.6521 6.25584 14.6965 6.27639 14.7454C6.29693 14.7943 6.3075 14.8467 6.3075 14.8997V16.4898C6.30952 16.544 6.30044 16.598 6.2808 16.6486C6.26116 16.6993 6.23137 16.7455 6.19321 16.7845C6.15506 16.8235 6.10931 16.8545 6.05872 16.8757C6.00812 16.8969 5.95371 16.9078 5.89875 16.9077H4.28625C4.17784 16.9077 4.07388 16.8653 3.99722 16.7897C3.92056 16.7141 3.8775 16.6115 3.8775 16.5046V14.8997Z" fill="#F2F5F9"/>
</svg>
