<svg width="34" height="34" viewBox="0 0 34 34" fill="none" xmlns="http://www.w3.org/2000/svg">
<g clip-path="url(#clip0)">
<path d="M23.3895 14.0389H13.7668V11.9014C13.7668 10.3014 14.9705 8.85088 16.6534 8.6994C18.5792 8.54583 20.1833 9.99432 20.1833 11.7499C20.1833 12.2085 20.5029 12.5136 20.9844 12.5136H21.7854C22.2668 12.5136 22.5885 12.2085 22.5885 11.7499C22.5885 8.85088 20.1834 6.48724 17.1349 6.41046C14.0076 6.33367 11.3617 8.7741 11.3617 11.7499V14.0389H10.5607C9.67871 14.0389 8.95654 14.7258 8.95654 15.5641V20.9036C8.95654 23.039 10.7205 24.7178 12.9658 24.7178H20.9844C23.2297 24.7178 24.9937 23.039 24.9937 20.9036V15.5641C24.9937 14.7258 24.2715 14.0389 23.3895 14.0389ZM17.7761 19.9117V20.9036C17.7761 21.2855 17.3756 21.6673 16.9751 21.6673C16.5746 21.6673 16.1741 21.2855 16.1741 20.9036V19.9117C15.6926 19.6834 15.371 19.1501 15.371 18.6147C15.371 17.7763 16.0931 17.0894 16.9751 17.0894C17.8571 17.0894 18.5792 17.7763 18.5792 18.6147C18.5792 19.1501 18.2576 19.6834 17.7761 19.9117Z" fill="#0D0106"/>
</g>
<defs>
<clipPath id="clip0">
<rect width="34" height="34" fill="white"/>
</clipPath>
</defs>
</svg>
