<svg width="37" height="37" viewBox="0 0 37 37" fill="none" xmlns="http://www.w3.org/2000/svg">
<path d="M23.597 14.4847C23.597 11.7228 21.3838 9.48486 18.6536 9.48486C15.9233 9.48486 13.7101 11.7228 13.7101 14.4847C13.7101 17.2444 15.9233 19.4824 18.6536 19.4824C21.3838 19.4824 23.597 17.2444 23.597 14.4847Z" fill="#0D0106"/>
<path d="M26.8919 24.2362C26.1218 22.4544 24.6652 20.9685 22.7818 20.0787C22.2691 19.88 21.6684 19.88 21.2416 20.1781C20.3834 20.772 19.5275 21.0678 18.5 21.0678C17.4725 21.0678 16.6166 20.772 15.7584 20.1781C15.3316 19.9793 14.7309 19.88 14.2183 20.1781C12.3349 21.0678 10.8783 22.5538 10.1082 24.3356C9.50747 25.6206 10.4492 27.1065 11.7342 27.1065H25.2659C26.5509 27.1065 27.4926 25.6206 26.8919 24.2362Z" fill="#0D0106"/>
</svg>
